<svg width="258" height="20" viewBox="0 0 258 20" fill="none" xmlns="http://www.w3.org/2000/svg">
<g id="&#227;&#128;&#156;&#231;&#180;&#160;&#230;&#153;&#180;&#227;&#130;&#137;&#227;&#129;&#151;&#227;&#129;&#141;&#227;&#131;&#151;&#227;&#131;&#173;&#227;&#130;&#176;&#227;&#131;&#169;&#227;&#131;&#159;&#227;&#131;&#179;&#227;&#130;&#176;&#227;&#131;&#158;&#227;&#131;&#161;&#231;&#159;&#165;&#232;&#173;&#152;&#227;&#128;&#156;">
<path d="M6.37 10.282C7.322 11.318 8.344 11.822 9.674 11.822C11.172 11.822 12.544 10.982 13.482 9.246L11.942 8.406C11.41 9.4 10.612 10.086 9.716 10.086C8.75 10.086 8.232 9.722 7.63 9.078C6.678 8.042 5.656 7.538 4.326 7.538C2.828 7.538 1.456 8.378 0.518 10.114L2.058 10.954C2.59 9.96 3.388 9.274 4.284 9.274C5.264 9.274 5.768 9.652 6.37 10.282ZM18.088 13.18C17.36 13.852 16.086 14.496 14.896 14.902C15.246 15.168 15.862 15.728 16.142 16.036C17.304 15.532 18.732 14.65 19.628 13.768L18.088 13.18ZM22.792 8.63C22.036 9.274 21.028 10.002 20.006 10.66C19.782 10.492 19.516 10.324 19.236 10.156C19.866 9.75 20.608 9.19 21.294 8.63H22.792ZM27.888 12.564C27.202 11.78 25.774 10.73 24.668 10.044L23.506 10.884C23.856 11.108 24.22 11.374 24.584 11.64L20.734 11.71C21.966 10.996 23.282 10.142 24.36 9.344L23.086 8.63H27.566V7.356H22.148V6.824H26.208V5.634H22.148V5.102H26.95V3.898H22.148V3.128H20.482V3.898H15.932V5.102H20.482V5.634H16.646V6.824H20.482V7.356H15.162V8.63H19.138C18.802 8.938 18.452 9.246 18.116 9.498C17.864 9.358 17.612 9.232 17.388 9.12L16.31 10.044C17.052 10.436 17.948 10.996 18.634 11.5C18.48 11.584 18.326 11.654 18.186 11.738C17.08 11.752 16.058 11.766 15.204 11.766L15.288 13.082C16.702 13.054 18.522 13.026 20.496 12.984V16.176H22.134V12.956C23.422 12.928 24.752 12.9 26.04 12.858C26.278 13.082 26.488 13.306 26.642 13.488L27.888 12.564ZM23.016 13.992C24.08 14.538 25.48 15.392 26.152 15.938L27.468 15.014C26.712 14.426 25.27 13.642 24.248 13.138L23.016 13.992ZM32.186 5.592V8.14H31.01V5.592H32.186ZM31.01 12.158V9.582H32.186V12.158H31.01ZM33.572 4.136H29.666V14.748H31.01V13.614H33.572V4.136ZM36.47 13.026V12.34H39.97V13.026H36.47ZM39.97 10.576V11.262H36.47V10.576H39.97ZM41.524 9.4H34.93V16.232H36.47V14.104H39.97V14.692C39.97 14.846 39.928 14.902 39.746 14.902C39.564 14.916 38.99 14.916 38.472 14.888C38.654 15.266 38.836 15.812 38.906 16.204C39.788 16.218 40.446 16.19 40.908 15.98C41.398 15.77 41.524 15.406 41.524 14.72V9.4ZM38.962 7.636V7.02H41.608V5.914H38.962V5.354H41.888V4.164H38.962V3.142H37.338V4.164H34.482V5.354H37.338V5.914H34.846V7.02H37.338V7.636H34.146V8.826H42.21V7.636H38.962ZM47.726 3.73L47.278 5.41C48.37 5.69 51.492 6.348 52.906 6.53L53.326 4.822C52.108 4.682 49.056 4.15 47.726 3.73ZM47.81 6.544L45.934 6.278C45.836 8.014 45.514 10.758 45.234 12.13L46.844 12.536C46.97 12.256 47.11 12.032 47.362 11.724C48.244 10.66 49.672 10.072 51.254 10.072C52.472 10.072 53.34 10.744 53.34 11.654C53.34 13.432 51.114 14.454 46.914 13.88L47.446 15.714C53.27 16.204 55.286 14.244 55.286 11.696C55.286 10.002 53.858 8.49 51.408 8.49C49.938 8.49 48.552 8.896 47.278 9.82C47.376 9.022 47.628 7.314 47.81 6.544ZM62.594 3.898L60.34 3.87C60.466 4.43 60.522 5.102 60.522 5.76C60.522 6.964 60.382 10.646 60.382 12.522C60.382 14.916 61.866 15.924 64.162 15.924C67.354 15.924 69.342 14.048 70.238 12.704L68.964 11.164C67.956 12.69 66.486 14.02 64.176 14.02C63.084 14.02 62.244 13.558 62.244 12.144C62.244 10.408 62.356 7.272 62.412 5.76C62.44 5.2 62.51 4.486 62.594 3.898ZM73.794 7.888L73.892 9.54C76.006 9.666 78.26 9.666 79.982 9.554C80.206 10.03 80.472 10.52 80.766 11.01C80.346 10.968 79.59 10.898 79.002 10.842L78.862 12.172C79.884 12.284 81.396 12.466 82.18 12.62L83.034 11.332C82.782 11.094 82.586 10.884 82.404 10.618C82.152 10.254 81.914 9.82 81.676 9.372C82.516 9.26 83.272 9.106 83.916 8.938L83.636 7.286C82.95 7.468 82.11 7.706 80.962 7.846C80.878 7.622 80.794 7.412 80.724 7.216C80.654 7.006 80.584 6.782 80.514 6.558C81.438 6.432 82.32 6.25 83.09 6.04L82.866 4.43C81.97 4.71 81.074 4.906 80.108 5.032C80.01 4.556 79.926 4.066 79.856 3.562L77.98 3.772C78.148 4.262 78.288 4.71 78.428 5.158C77.14 5.2 75.712 5.144 74.046 4.948L74.144 6.558C75.908 6.726 77.546 6.754 78.862 6.684C78.946 6.922 79.03 7.188 79.142 7.51C79.198 7.664 79.254 7.832 79.324 8C77.77 8.098 75.88 8.084 73.794 7.888ZM76.482 11.136L74.746 10.8C74.424 11.472 74.116 12.158 74.144 13.054C74.172 15.056 75.908 15.882 78.708 15.882C79.856 15.882 81.13 15.784 82.11 15.616L82.208 13.838C81.214 14.034 80.024 14.146 78.694 14.146C76.846 14.146 75.866 13.726 75.866 12.69C75.866 12.088 76.146 11.598 76.482 11.136ZM97.356 4.738C97.356 4.29 97.72 3.926 98.168 3.926C98.602 3.926 98.966 4.29 98.966 4.738C98.966 5.172 98.602 5.536 98.168 5.536C97.72 5.536 97.356 5.172 97.356 4.738ZM96.488 4.738C96.488 4.836 96.502 4.92 96.516 5.004C96.222 5.046 95.914 5.06 95.718 5.06H89.236C88.774 5.06 87.976 5.004 87.57 4.948V6.922C87.92 6.894 88.592 6.866 89.236 6.866H95.746C95.564 8.07 95.032 9.652 94.108 10.814C92.974 12.242 91.392 13.46 88.62 14.104L90.146 15.784C92.638 14.972 94.514 13.586 95.774 11.906C96.95 10.352 97.552 8.182 97.874 6.81C97.916 6.684 97.944 6.544 97.986 6.39C98.042 6.404 98.112 6.404 98.168 6.404C99.078 6.404 99.834 5.648 99.834 4.738C99.834 3.814 99.078 3.058 98.168 3.058C97.244 3.058 96.488 3.814 96.488 4.738ZM102.214 5.074C102.242 5.466 102.242 6.04 102.242 6.432V13.278C102.242 13.95 102.2 15.168 102.2 15.238H104.132C104.132 15.196 104.132 14.874 104.118 14.482H110.866C110.866 14.888 110.852 15.21 110.852 15.238H112.784C112.784 15.182 112.756 13.838 112.756 13.292V6.432C112.756 6.012 112.756 5.494 112.784 5.074C112.28 5.102 111.748 5.102 111.398 5.102H103.698C103.32 5.102 102.788 5.088 102.214 5.074ZM104.118 6.88H110.88V12.69H104.118V6.88ZM125.706 3.534L124.6 3.982C124.95 4.486 125.342 5.228 125.622 5.788L125.524 5.732C125.216 5.83 124.74 5.9 124.306 5.9H121.506C121.52 5.872 121.534 5.858 121.548 5.83C121.702 5.522 122.066 4.892 122.402 4.402L120.344 3.73C120.218 4.206 119.924 4.85 119.714 5.186C119.028 6.39 117.796 8.21 115.346 9.694L116.914 10.87C118.3 9.932 119.518 8.7 120.456 7.482H124.39C124.166 8.518 123.354 10.212 122.402 11.29C121.17 12.69 119.616 13.908 116.76 14.762L118.412 16.246C121.044 15.196 122.724 13.922 124.054 12.284C125.328 10.73 126.126 8.868 126.504 7.622C126.616 7.272 126.812 6.88 126.966 6.614L125.776 5.886L126.812 5.452C126.56 4.934 126.056 4.038 125.706 3.534ZM127.358 2.904L126.252 3.352C126.644 3.884 127.092 4.696 127.386 5.284L128.492 4.808C128.24 4.318 127.722 3.422 127.358 2.904ZM132.272 4.262V6.068C132.678 6.04 133.28 6.026 133.728 6.026H139.09C139.594 6.026 140.252 6.04 140.63 6.068V4.262C140.238 4.318 139.552 4.332 139.118 4.332H133.728C133.252 4.332 132.664 4.318 132.272 4.262ZM141.806 8.322L140.56 7.552C140.364 7.636 139.986 7.692 139.538 7.692H132.608C132.174 7.692 131.572 7.65 130.984 7.608V9.428C131.572 9.372 132.272 9.358 132.608 9.358H139.37C139.118 10.142 138.684 11.01 137.928 11.78C136.864 12.872 135.184 13.796 133.084 14.23L134.47 15.812C136.262 15.308 138.054 14.356 139.468 12.788C140.518 11.626 141.12 10.268 141.54 8.91C141.596 8.756 141.708 8.504 141.806 8.322ZM147.49 4.038L146.832 5.69C148.806 5.942 152.782 6.838 154.406 7.44L155.12 5.69C153.356 5.074 149.324 4.262 147.49 4.038ZM146.846 7.804L146.202 9.498C148.288 9.834 151.872 10.646 153.482 11.262L154.168 9.512C152.404 8.896 148.848 8.14 146.846 7.804ZM146.132 11.808L145.432 13.572C147.672 13.908 152.096 14.874 153.986 15.658L154.756 13.908C152.838 13.194 148.526 12.186 146.132 11.808ZM161.224 4.36L159.908 5.76C160.93 6.474 162.68 8 163.408 8.784L164.836 7.328C164.024 6.474 162.204 5.018 161.224 4.36ZM159.474 13.684L160.65 15.532C162.624 15.196 164.43 14.412 165.844 13.558C168.098 12.2 169.96 10.268 171.024 8.378L169.932 6.404C169.05 8.294 167.23 10.436 164.836 11.85C163.478 12.662 161.658 13.376 159.474 13.684ZM183.106 3.534L182 3.982C182.35 4.486 182.742 5.228 183.022 5.788L182.924 5.732C182.616 5.83 182.14 5.9 181.706 5.9H178.906C178.92 5.872 178.934 5.858 178.948 5.83C179.102 5.522 179.466 4.892 179.802 4.402L177.744 3.73C177.618 4.206 177.324 4.85 177.114 5.186C176.428 6.39 175.196 8.21 172.746 9.694L174.314 10.87C175.7 9.932 176.918 8.7 177.856 7.482H181.79C181.566 8.518 180.754 10.212 179.802 11.29C178.57 12.69 177.016 13.908 174.16 14.762L175.812 16.246C178.444 15.196 180.124 13.922 181.454 12.284C182.728 10.73 183.526 8.868 183.904 7.622C184.016 7.272 184.212 6.88 184.366 6.614L183.176 5.886L184.212 5.452C183.96 4.934 183.456 4.038 183.106 3.534ZM184.758 2.904L183.652 3.352C184.044 3.884 184.492 4.696 184.786 5.284L185.892 4.808C185.64 4.318 185.122 3.422 184.758 2.904ZM199.892 6.18L198.492 5.032C198.198 5.13 197.722 5.186 197.19 5.186H189.42C188.944 5.186 188.174 5.116 187.81 5.06V7.02C188.104 6.992 188.86 6.922 189.42 6.922H196.826C196.168 8.07 194.852 9.694 193.27 10.954C192.388 10.184 191.464 9.428 190.904 9.008L189.42 10.198C190.26 10.8 191.688 12.06 192.5 12.886C193.41 13.81 194.586 15.126 195.174 15.91L196.812 14.608C196.266 13.95 195.44 13.04 194.642 12.242C196.616 10.646 198.408 8.406 199.416 6.768C199.528 6.586 199.696 6.404 199.892 6.18ZM212.702 4.71L210.616 3.982C210.56 4.346 210.406 4.906 210.28 5.27C209.916 6.376 209.44 7.482 208.726 8.602C207.592 7.762 206.122 6.754 205.002 6.068L203.812 7.496C205.24 8.364 206.584 9.358 207.592 10.156C206.206 11.822 204.554 13.18 202.272 14.286L203.84 15.7C206.206 14.412 207.816 12.858 209.048 11.374C210.168 12.34 211.176 13.32 212.156 14.468L213.598 12.872C212.646 11.864 211.47 10.786 210.238 9.778C211.064 8.49 211.694 7.076 212.114 5.97C212.254 5.648 212.52 5.032 212.702 4.71ZM222.376 10.24V8.672H220.08V8.336V6.446H222.054V4.906H218.358C218.498 4.43 218.61 3.954 218.708 3.464L217.112 3.142C216.832 4.738 216.3 6.348 215.544 7.356C215.922 7.566 216.58 8.042 216.888 8.322C217.238 7.804 217.56 7.16 217.84 6.446H218.4V8.322V8.672H215.81V10.24H218.288C218.064 11.864 217.42 13.614 215.6 14.916C215.95 15.168 216.566 15.826 216.79 16.176C218.134 15.196 218.96 13.88 219.436 12.508C220.122 13.362 220.92 14.412 221.382 15.14L222.502 13.74C222.11 13.278 220.598 11.528 219.87 10.814C219.912 10.632 219.94 10.436 219.968 10.24H222.376ZM224.364 13.236V5.914H226.394V13.236H224.364ZM222.754 4.346V15.812H224.364V14.804H226.394V15.602H228.088V4.346H222.754ZM234.108 3.576H230.678V4.836H234.108V3.576ZM234.458 5.452H230.062V6.768H234.458V5.452ZM234.122 7.398H230.608V8.672H234.122V7.398ZM230.608 10.562H234.122V9.316H230.608V10.562ZM232.862 12.55V14.16H231.826V12.55H232.862ZM234.164 11.248H230.566V16.022H231.826V15.462H234.164V11.248ZM236.138 13.516V12.774H237.51V13.516H236.138ZM237.51 10.954V11.654H236.138V10.954H237.51ZM241.64 9.764C241.444 10.366 241.206 10.926 240.94 11.458C240.884 10.786 240.828 10.03 240.8 9.176H243.054V7.846H240.772C240.744 6.838 240.744 5.746 240.758 4.57C241.262 5.34 241.696 6.348 241.85 7.048L243.18 6.502C242.984 5.802 242.494 4.752 241.934 3.996L240.758 4.444L240.772 3.156H239.358C239.358 4.878 239.372 6.446 239.4 7.846H238.322C238.462 7.342 238.63 6.642 238.812 5.97L237.552 5.774H239.106V4.528H237.65V3.156H236.124V4.528H234.64V5.774H237.468C237.412 6.334 237.286 7.146 237.174 7.692L237.902 7.846H235.634L236.572 7.622C236.558 7.132 236.39 6.376 236.166 5.816L235.06 6.054C235.242 6.614 235.368 7.342 235.396 7.846H234.346V9.176H239.442C239.512 10.772 239.624 12.116 239.82 13.194C239.512 13.572 239.19 13.908 238.854 14.23V9.806H234.892V15.196H236.138V14.664H238.35C238.056 14.902 237.748 15.112 237.44 15.294C237.748 15.532 238.182 15.938 238.378 16.218C239.008 15.812 239.638 15.308 240.212 14.72C240.576 15.672 241.108 16.19 241.85 16.246C242.382 16.274 242.984 15.784 243.334 13.796C243.096 13.642 242.55 13.194 242.312 12.858C242.256 13.852 242.116 14.468 241.934 14.454C241.654 14.426 241.43 14.076 241.262 13.474C241.906 12.578 242.466 11.57 242.872 10.45L241.64 9.764ZM250.32 10.282C251.272 11.318 252.294 11.822 253.624 11.822C255.122 11.822 256.494 10.982 257.432 9.246L255.892 8.406C255.36 9.4 254.562 10.086 253.666 10.086C252.7 10.086 252.182 9.722 251.58 9.078C250.628 8.042 249.606 7.538 248.276 7.538C246.778 7.538 245.406 8.378 244.468 10.114L246.008 10.954C246.54 9.96 247.338 9.274 248.234 9.274C249.214 9.274 249.718 9.652 250.32 10.282Z" fill="#38BDF8"/>
<path d="M6.37 10.282L7.10633 9.60537L7.09973 9.59819L7.09299 9.59114L6.37 10.282ZM13.482 9.246L14.3618 9.72137L14.8353 8.84506L13.9609 8.3681L13.482 9.246ZM11.942 8.406L12.4209 7.5281L11.536 7.04544L11.0603 7.93412L11.942 8.406ZM7.63 9.078L6.89365 9.75465L6.89947 9.76088L7.63 9.078ZM0.518 10.114L-0.361787 9.63863L-0.835275 10.5149L0.0391479 10.9919L0.518 10.114ZM2.058 10.954L1.57915 11.8319L2.46403 12.3146L2.93966 11.4259L2.058 10.954ZM5.63367 10.9586C6.74701 12.1702 8.02521 12.822 9.674 12.822V10.822C8.66279 10.822 7.89699 10.4658 7.10633 9.60537L5.63367 10.9586ZM9.674 12.822C11.607 12.822 13.2838 11.7164 14.3618 9.72137L12.6022 8.77063C11.8042 10.2476 10.737 10.822 9.674 10.822V12.822ZM13.9609 8.3681L12.4209 7.5281L11.4631 9.2839L13.0031 10.1239L13.9609 8.3681ZM11.0603 7.93412C10.602 8.79041 10.0706 9.086 9.716 9.086V11.086C11.1534 11.086 12.218 10.0096 12.8237 8.87788L11.0603 7.93412ZM9.716 9.086C9.36937 9.086 9.16301 9.02329 9.00264 8.93879C8.82435 8.84485 8.63479 8.68851 8.36053 8.39512L6.89947 9.76088C7.22721 10.1115 7.59765 10.4592 8.07036 10.7082C8.56099 10.9667 9.09663 11.086 9.716 11.086V9.086ZM8.36633 8.40137C7.25299 7.1898 5.97479 6.538 4.326 6.538V8.538C5.33721 8.538 6.10301 8.8942 6.89367 9.75463L8.36633 8.40137ZM4.326 6.538C2.39302 6.538 0.716168 7.64361 -0.361787 9.63863L1.39779 10.5894C2.19583 9.11239 3.26298 8.538 4.326 8.538V6.538ZM0.0391479 10.9919L1.57915 11.8319L2.53685 10.0761L0.996852 9.2361L0.0391479 10.9919ZM2.93966 11.4259C3.39796 10.5696 3.92938 10.274 4.284 10.274V8.274C2.84662 8.274 1.78204 9.35041 1.17634 10.4821L2.93966 11.4259ZM4.284 10.274C4.63341 10.274 4.83812 10.3385 4.99693 10.4234C5.17689 10.5197 5.36472 10.6774 5.64701 10.9729L7.09299 9.59114C6.77328 9.25656 6.40811 8.91025 5.94057 8.66006C5.45188 8.39854 4.91459 8.274 4.284 8.274V10.274ZM18.088 13.18L18.4447 12.2458L17.8654 12.0246L17.4097 12.4452L18.088 13.18ZM14.896 14.902L14.5731 13.9556L12.7959 14.5619L14.2909 15.6982L14.896 14.902ZM16.142 16.036L15.4021 16.7087L15.8834 17.2382L16.5399 16.9534L16.142 16.036ZM19.628 13.768L20.3295 14.4807L21.4386 13.3889L19.9847 12.8338L19.628 13.768ZM22.792 8.63L23.4405 9.39124L25.508 7.63H22.792V8.63ZM20.006 10.66L19.406 11.46L19.9625 11.8774L20.5473 11.5008L20.006 10.66ZM19.236 10.156L18.6943 9.31543L17.3429 10.1863L18.7215 11.0135L19.236 10.156ZM21.294 8.63V7.63H20.9377L20.6616 7.85534L21.294 8.63ZM27.888 12.564L28.4837 13.3672L29.3545 12.7214L28.6406 11.9055L27.888 12.564ZM24.668 10.044L25.1951 9.19419L24.6254 8.84085L24.0822 9.23358L24.668 10.044ZM23.506 10.884L22.9202 10.0736L21.7295 10.9343L22.9669 11.7263L23.506 10.884ZM24.584 11.64L24.6022 12.6398L27.5731 12.5858L25.174 10.8326L24.584 11.64ZM20.734 11.71L20.2326 10.8448L16.8934 12.78L20.7522 12.7098L20.734 11.71ZM24.36 9.344L24.955 10.1477L26.1979 9.22768L24.8489 8.47166L24.36 9.344ZM23.086 8.63V7.63H19.2563L22.5971 9.50234L23.086 8.63ZM27.566 8.63V9.63H28.566V8.63H27.566ZM27.566 7.356H28.566V6.356H27.566V7.356ZM22.148 7.356H21.148V8.356H22.148V7.356ZM22.148 6.824V5.824H21.148V6.824H22.148ZM26.208 6.824V7.824H27.208V6.824H26.208ZM26.208 5.634H27.208V4.634H26.208V5.634ZM22.148 5.634H21.148V6.634H22.148V5.634ZM22.148 5.102V4.102H21.148V5.102H22.148ZM26.95 5.102V6.102H27.95V5.102H26.95ZM26.95 3.898H27.95V2.898H26.95V3.898ZM22.148 3.898H21.148V4.898H22.148V3.898ZM22.148 3.128H23.148V2.128H22.148V3.128ZM20.482 3.128V2.128H19.482V3.128H20.482ZM20.482 3.898V4.898H21.482V3.898H20.482ZM15.932 3.898V2.898H14.932V3.898H15.932ZM15.932 5.102H14.932V6.102H15.932V5.102ZM20.482 5.102H21.482V4.102H20.482V5.102ZM20.482 5.634V6.634H21.482V5.634H20.482ZM16.646 5.634V4.634H15.646V5.634H16.646ZM16.646 6.824H15.646V7.824H16.646V6.824ZM20.482 6.824H21.482V5.824H20.482V6.824ZM20.482 7.356V8.356H21.482V7.356H20.482ZM15.162 7.356V6.356H14.162V7.356H15.162ZM15.162 8.63H14.162V9.63H15.162V8.63ZM19.138 8.63L19.8137 9.36715L21.7088 7.63H19.138V8.63ZM18.116 9.498L17.6304 10.3722L18.1972 10.6871L18.716 10.298L18.116 9.498ZM17.388 9.12L17.8352 8.22557L17.2413 7.92863L16.7372 8.36074L17.388 9.12ZM16.31 10.044L15.6592 9.28474L14.543 10.2415L15.8429 10.9282L16.31 10.044ZM18.634 11.5L19.1129 12.3779L20.4931 11.625L19.2261 10.6941L18.634 11.5ZM18.186 11.738L18.1987 12.7379L18.4688 12.7345L18.7005 12.5955L18.186 11.738ZM15.204 11.766V10.766H14.1381L14.206 11.8297L15.204 11.766ZM15.288 13.082L14.29 13.1457L14.351 14.1008L15.3078 14.0818L15.288 13.082ZM20.496 12.984H21.496V11.9625L20.4747 11.9842L20.496 12.984ZM20.496 16.176H19.496V17.176H20.496V16.176ZM22.134 16.176V17.176H23.134V16.176H22.134ZM22.134 12.956L22.1123 11.9562L21.134 11.9775V12.956H22.134ZM26.04 12.858L26.7254 12.1298L26.4228 11.845L26.0074 11.8585L26.04 12.858ZM26.642 13.488L25.8786 14.1339L26.4844 14.8498L27.2377 14.2912L26.642 13.488ZM23.016 13.992L22.4463 13.1701L21.0756 14.1203L22.5594 14.8817L23.016 13.992ZM26.152 15.938L25.5214 16.7141L26.108 17.1907L26.7266 16.7564L26.152 15.938ZM27.468 15.014L28.0426 15.8324L29.1497 15.0551L28.0819 14.2246L27.468 15.014ZM24.248 13.138L24.6903 12.2411L24.1622 11.9807L23.6783 12.3161L24.248 13.138ZM17.4097 12.4452C16.8282 12.982 15.7031 13.57 14.5731 13.9556L15.2189 15.8484C16.4689 15.422 17.8918 14.722 18.7663 13.9148L17.4097 12.4452ZM14.2909 15.6982C14.5958 15.9299 15.166 16.449 15.4021 16.7087L16.8819 15.3633C16.558 15.007 15.8962 14.4061 15.5011 14.1058L14.2909 15.6982ZM16.5399 16.9534C17.784 16.4138 19.3246 15.4698 20.3295 14.4807L18.9265 13.0553C18.1394 13.8302 16.824 14.6502 15.7441 15.1186L16.5399 16.9534ZM19.9847 12.8338L18.4447 12.2458L17.7313 14.1142L19.2713 14.7022L19.9847 12.8338ZM22.1435 7.86876C21.431 8.4757 20.4616 9.17734 19.4647 9.8192L20.5473 11.5008C21.5944 10.8267 22.641 10.0723 23.4405 9.39124L22.1435 7.86876ZM20.606 9.86C20.3397 9.66026 20.038 9.47101 19.7505 9.29851L18.7215 11.0135C18.994 11.177 19.2243 11.3237 19.406 11.46L20.606 9.86ZM19.7777 10.9966C20.4509 10.5627 21.2248 9.97734 21.9264 9.40466L20.6616 7.85534C19.9912 8.40266 19.2811 8.9373 18.6943 9.31543L19.7777 10.9966ZM21.294 9.63H22.792V7.63H21.294V9.63ZM28.6406 11.9055C27.8532 11.0056 26.3206 9.8923 25.1951 9.19419L24.1409 10.8938C25.2274 11.5677 26.5508 12.5544 27.1354 13.2225L28.6406 11.9055ZM24.0822 9.23358L22.9202 10.0736L24.0918 11.6944L25.2538 10.8544L24.0822 9.23358ZM22.9669 11.7263C23.2861 11.9305 23.6243 12.1772 23.994 12.4474L25.174 10.8326C24.8157 10.5708 24.4259 10.2855 24.0451 10.0417L22.9669 11.7263ZM24.5658 10.6402L20.7158 10.7102L20.7522 12.7098L24.6022 12.6398L24.5658 10.6402ZM21.2354 12.5752C22.4952 11.8451 23.8431 10.9709 24.955 10.1477L23.765 8.54026C22.7209 9.31314 21.4368 10.1469 20.2326 10.8448L21.2354 12.5752ZM24.8489 8.47166L23.5749 7.75766L22.5971 9.50234L23.8711 10.2163L24.8489 8.47166ZM23.086 9.63H27.566V7.63H23.086V9.63ZM28.566 8.63V7.356H26.566V8.63H28.566ZM27.566 6.356H22.148V8.356H27.566V6.356ZM23.148 7.356V6.824H21.148V7.356H23.148ZM22.148 7.824H26.208V5.824H22.148V7.824ZM27.208 6.824V5.634H25.208V6.824H27.208ZM26.208 4.634H22.148V6.634H26.208V4.634ZM23.148 5.634V5.102H21.148V5.634H23.148ZM22.148 6.102H26.95V4.102H22.148V6.102ZM27.95 5.102V3.898H25.95V5.102H27.95ZM26.95 2.898H22.148V4.898H26.95V2.898ZM23.148 3.898V3.128H21.148V3.898H23.148ZM22.148 2.128H20.482V4.128H22.148V2.128ZM19.482 3.128V3.898H21.482V3.128H19.482ZM20.482 2.898H15.932V4.898H20.482V2.898ZM14.932 3.898V5.102H16.932V3.898H14.932ZM15.932 6.102H20.482V4.102H15.932V6.102ZM19.482 5.102V5.634H21.482V5.102H19.482ZM20.482 4.634H16.646V6.634H20.482V4.634ZM15.646 5.634V6.824H17.646V5.634H15.646ZM16.646 7.824H20.482V5.824H16.646V7.824ZM19.482 6.824V7.356H21.482V6.824H19.482ZM20.482 6.356H15.162V8.356H20.482V6.356ZM14.162 7.356V8.63H16.162V7.356H14.162ZM15.162 9.63H19.138V7.63H15.162V9.63ZM18.4623 7.89285C18.1323 8.19533 17.8115 8.47637 17.516 8.698L18.716 10.298C19.0925 10.0156 19.4717 9.68067 19.8137 9.36715L18.4623 7.89285ZM18.6016 8.62384C18.3278 8.4717 18.0569 8.3364 17.8352 8.22557L16.9408 10.0144C17.1671 10.1276 17.4002 10.2443 17.6304 10.3722L18.6016 8.62384ZM16.7372 8.36074L15.6592 9.28474L16.9608 10.8033L18.0388 9.87926L16.7372 8.36074ZM15.8429 10.9282C16.5419 11.2975 17.3961 11.8314 18.0419 12.3059L19.2261 10.6941C18.4999 10.1606 17.5621 9.57452 16.7771 9.15981L15.8429 10.9282ZM18.1551 10.6221C18.107 10.6484 17.8155 10.7941 17.6715 10.8805L18.7005 12.5955C18.8365 12.5139 18.853 12.5196 19.1129 12.3779L18.1551 10.6221ZM18.1733 10.7381C17.0642 10.7521 16.0501 10.766 15.204 10.766V12.766C16.0659 12.766 17.0958 12.7519 18.1987 12.7379L18.1733 10.7381ZM14.206 11.8297L14.29 13.1457L16.286 13.0183L16.202 11.7023L14.206 11.8297ZM15.3078 14.0818C16.7126 14.054 18.5455 14.0257 20.5173 13.9838L20.4747 11.9842C18.4985 12.0263 16.6914 12.054 15.2682 12.0822L15.3078 14.0818ZM19.496 12.984V16.176H21.496V12.984H19.496ZM20.496 17.176H22.134V15.176H20.496V17.176ZM23.134 16.176V12.956H21.134V16.176H23.134ZM22.1557 13.9558C23.442 13.9278 24.778 13.8997 26.0726 13.8575L26.0074 11.8585C24.726 11.9003 23.402 11.9282 22.1123 11.9562L22.1557 13.9558ZM25.3546 13.5862C25.5663 13.7854 25.7501 13.982 25.8786 14.1339L27.4054 12.8421C27.2259 12.63 26.9897 12.3786 26.7254 12.1298L25.3546 13.5862ZM27.2377 14.2912L28.4837 13.3672L27.2923 11.7608L26.0463 12.6848L27.2377 14.2912ZM22.5594 14.8817C23.5953 15.4133 24.9264 16.2306 25.5214 16.7141L26.7826 15.1619C26.0336 14.5534 24.5647 13.6627 23.4726 13.1023L22.5594 14.8817ZM26.7266 16.7564L28.0426 15.8324L26.8934 14.1956L25.5774 15.1196L26.7266 16.7564ZM28.0819 14.2246C27.2378 13.5681 25.7136 12.7458 24.6903 12.2411L23.8057 14.0349C24.8264 14.5382 26.1862 15.2839 26.8541 15.8034L28.0819 14.2246ZM23.6783 12.3161L22.4463 13.1701L23.5857 14.8139L24.8177 13.9599L23.6783 12.3161ZM32.186 5.592H33.186V4.592H32.186V5.592ZM32.186 8.14V9.14H33.186V8.14H32.186ZM31.01 8.14H30.01V9.14H31.01V8.14ZM31.01 5.592V4.592H30.01V5.592H31.01ZM31.01 12.158H30.01V13.158H31.01V12.158ZM31.01 9.582V8.582H30.01V9.582H31.01ZM32.186 9.582H33.186V8.582H32.186V9.582ZM32.186 12.158V13.158H33.186V12.158H32.186ZM33.572 4.136H34.572V3.136H33.572V4.136ZM29.666 4.136V3.136H28.666V4.136H29.666ZM29.666 14.748H28.666V15.748H29.666V14.748ZM31.01 14.748V15.748H32.01V14.748H31.01ZM31.01 13.614V12.614H30.01V13.614H31.01ZM33.572 13.614V14.614H34.572V13.614H33.572ZM36.47 13.026H35.47V14.026H36.47V13.026ZM36.47 12.34V11.34H35.47V12.34H36.47ZM39.97 12.34H40.97V11.34H39.97V12.34ZM39.97 13.026V14.026H40.97V13.026H39.97ZM39.97 10.576H40.97V9.576H39.97V10.576ZM39.97 11.262V12.262H40.97V11.262H39.97ZM36.47 11.262H35.47V12.262H36.47V11.262ZM36.47 10.576V9.576H35.47V10.576H36.47ZM41.524 9.4H42.524V8.4H41.524V9.4ZM34.93 9.4V8.4H33.93V9.4H34.93ZM34.93 16.232H33.93V17.232H34.93V16.232ZM36.47 16.232V17.232H37.47V16.232H36.47ZM36.47 14.104V13.104H35.47V14.104H36.47ZM39.97 14.104H40.97V13.104H39.97V14.104ZM39.746 14.902V13.902H39.7076L39.6693 13.9049L39.746 14.902ZM38.472 14.888L38.526 13.8895L36.8374 13.7982L37.571 15.3218L38.472 14.888ZM38.906 16.204L37.9216 16.3798L38.0664 17.1908L38.8901 17.2039L38.906 16.204ZM40.908 15.98L40.5141 15.0609L40.5041 15.0651L40.4942 15.0696L40.908 15.98ZM38.962 7.636H37.962V8.636H38.962V7.636ZM38.962 7.02V6.02H37.962V7.02H38.962ZM41.608 7.02V8.02H42.608V7.02H41.608ZM41.608 5.914H42.608V4.914H41.608V5.914ZM38.962 5.914H37.962V6.914H38.962V5.914ZM38.962 5.354V4.354H37.962V5.354H38.962ZM41.888 5.354V6.354H42.888V5.354H41.888ZM41.888 4.164H42.888V3.164H41.888V4.164ZM38.962 4.164H37.962V5.164H38.962V4.164ZM38.962 3.142H39.962V2.142H38.962V3.142ZM37.338 3.142V2.142H36.338V3.142H37.338ZM37.338 4.164V5.164H38.338V4.164H37.338ZM34.482 4.164V3.164H33.482V4.164H34.482ZM34.482 5.354H33.482V6.354H34.482V5.354ZM37.338 5.354H38.338V4.354H37.338V5.354ZM37.338 5.914V6.914H38.338V5.914H37.338ZM34.846 5.914V4.914H33.846V5.914H34.846ZM34.846 7.02H33.846V8.02H34.846V7.02ZM37.338 7.02H38.338V6.02H37.338V7.02ZM37.338 7.636V8.636H38.338V7.636H37.338ZM34.146 7.636V6.636H33.146V7.636H34.146ZM34.146 8.826H33.146V9.826H34.146V8.826ZM42.21 8.826V9.826H43.21V8.826H42.21ZM42.21 7.636H43.21V6.636H42.21V7.636ZM31.186 5.592V8.14H33.186V5.592H31.186ZM32.186 7.14H31.01V9.14H32.186V7.14ZM32.01 8.14V5.592H30.01V8.14H32.01ZM31.01 6.592H32.186V4.592H31.01V6.592ZM32.01 12.158V9.582H30.01V12.158H32.01ZM31.01 10.582H32.186V8.582H31.01V10.582ZM31.186 9.582V12.158H33.186V9.582H31.186ZM32.186 11.158H31.01V13.158H32.186V11.158ZM33.572 3.136H29.666V5.136H33.572V3.136ZM28.666 4.136V14.748H30.666V4.136H28.666ZM29.666 15.748H31.01V13.748H29.666V15.748ZM32.01 14.748V13.614H30.01V14.748H32.01ZM31.01 14.614H33.572V12.614H31.01V14.614ZM34.572 13.614V4.136H32.572V13.614H34.572ZM37.47 13.026V12.34H35.47V13.026H37.47ZM36.47 13.34H39.97V11.34H36.47V13.34ZM38.97 12.34V13.026H40.97V12.34H38.97ZM39.97 12.026H36.47V14.026H39.97V12.026ZM38.97 10.576V11.262H40.97V10.576H38.97ZM39.97 10.262H36.47V12.262H39.97V10.262ZM37.47 11.262V10.576H35.47V11.262H37.47ZM36.47 11.576H39.97V9.576H36.47V11.576ZM41.524 8.4H34.93V10.4H41.524V8.4ZM33.93 9.4V16.232H35.93V9.4H33.93ZM34.93 17.232H36.47V15.232H34.93V17.232ZM37.47 16.232V14.104H35.47V16.232H37.47ZM36.47 15.104H39.97V13.104H36.47V15.104ZM38.97 14.104V14.692H40.97V14.104H38.97ZM38.97 14.692C38.97 14.6897 38.97 14.6755 38.9721 14.6532C38.9741 14.6311 38.9789 14.5932 38.9909 14.5454C39.0163 14.4447 39.0774 14.2894 39.2191 14.1476C39.3597 14.0071 39.512 13.9474 39.6068 13.9228C39.6526 13.911 39.6887 13.9062 39.7097 13.9041C39.7309 13.902 39.7441 13.902 39.746 13.902V15.902C39.8686 15.902 40.2949 15.9003 40.6334 15.5619C40.9763 15.2189 40.97 14.7876 40.97 14.692H38.97ZM39.6693 13.9049C39.5524 13.9139 39.0294 13.9167 38.526 13.8895L38.418 15.8865C38.9506 15.9153 39.5756 15.9181 39.8227 15.8991L39.6693 13.9049ZM37.571 15.3218C37.7177 15.6264 37.8691 16.0859 37.9216 16.3798L39.8904 16.0282C39.8029 15.5381 39.5903 14.9056 39.373 14.4542L37.571 15.3218ZM38.8901 17.2039C39.7316 17.2172 40.6212 17.2088 41.3218 16.8904L40.4942 15.0696C40.2708 15.1712 39.8444 15.2188 38.9219 15.2041L38.8901 17.2039ZM41.3019 16.8991C41.7358 16.7132 42.0966 16.4095 42.3093 15.9441C42.4949 15.5379 42.524 15.0958 42.524 14.72H40.524C40.524 14.8644 40.5171 14.9637 40.5071 15.0328C40.4972 15.1008 40.4869 15.1201 40.4902 15.1129C40.4962 15.0998 40.5112 15.076 40.5334 15.0556C40.5523 15.0381 40.5546 15.0435 40.5141 15.0609L41.3019 16.8991ZM42.524 14.72V9.4H40.524V14.72H42.524ZM39.962 7.636V7.02H37.962V7.636H39.962ZM38.962 8.02H41.608V6.02H38.962V8.02ZM42.608 7.02V5.914H40.608V7.02H42.608ZM41.608 4.914H38.962V6.914H41.608V4.914ZM39.962 5.914V5.354H37.962V5.914H39.962ZM38.962 6.354H41.888V4.354H38.962V6.354ZM42.888 5.354V4.164H40.888V5.354H42.888ZM41.888 3.164H38.962V5.164H41.888V3.164ZM39.962 4.164V3.142H37.962V4.164H39.962ZM38.962 2.142H37.338V4.142H38.962V2.142ZM36.338 3.142V4.164H38.338V3.142H36.338ZM37.338 3.164H34.482V5.164H37.338V3.164ZM33.482 4.164V5.354H35.482V4.164H33.482ZM34.482 6.354H37.338V4.354H34.482V6.354ZM36.338 5.354V5.914H38.338V5.354H36.338ZM37.338 4.914H34.846V6.914H37.338V4.914ZM33.846 5.914V7.02H35.846V5.914H33.846ZM34.846 8.02H37.338V6.02H34.846V8.02ZM36.338 7.02V7.636H38.338V7.02H36.338ZM37.338 6.636H34.146V8.636H37.338V6.636ZM33.146 7.636V8.826H35.146V7.636H33.146ZM34.146 9.826H42.21V7.826H34.146V9.826ZM43.21 8.826V7.636H41.21V8.826H43.21ZM42.21 6.636H38.962V8.636H42.21V6.636ZM47.726 3.73L48.0271 2.77642L47.0294 2.46133L46.7598 3.47234L47.726 3.73ZM47.278 5.41L46.3118 5.15234L46.0516 6.12789L47.0296 6.37866L47.278 5.41ZM52.906 6.53L52.7783 7.52182L53.6639 7.6358L53.8771 6.76879L52.906 6.53ZM53.326 4.822L54.2971 5.06079L54.5682 3.9582L53.4402 3.82854L53.326 4.822ZM47.81 6.544L48.7832 6.77402L49.0352 5.70772L47.9504 5.5539L47.81 6.544ZM45.934 6.278L46.0744 5.2879L44.9969 5.13513L44.9356 6.22164L45.934 6.278ZM45.234 12.13L44.2542 11.93L44.0632 12.8661L44.9895 13.0996L45.234 12.13ZM46.844 12.536L46.5995 13.5056L47.412 13.7106L47.7559 12.9464L46.844 12.536ZM47.362 11.724L46.5921 11.0858L46.588 11.0908L47.362 11.724ZM46.914 13.88L47.0494 12.8892L45.5249 12.6809L45.9536 14.1586L46.914 13.88ZM47.446 15.714L46.4856 15.9926L46.6771 16.6528L47.3622 16.7105L47.446 15.714ZM47.278 9.82L46.2855 9.69811L46.0054 11.9783L47.8651 10.6295L47.278 9.82ZM46.7598 3.47234L46.3118 5.15234L48.2442 5.66766L48.6922 3.98766L46.7598 3.47234ZM47.0296 6.37866C48.1459 6.66489 51.3104 7.33288 52.7783 7.52182L53.0337 5.53818C51.6736 5.36312 48.5941 4.71511 47.5264 4.44134L47.0296 6.37866ZM53.8771 6.76879L54.2971 5.06079L52.3549 4.58321L51.9349 6.29121L53.8771 6.76879ZM53.4402 3.82854C52.2487 3.69159 49.2688 3.16853 48.0271 2.77642L47.4249 4.68358C48.8432 5.13147 51.9673 5.67241 53.2118 5.81546L53.4402 3.82854ZM47.9504 5.5539L46.0744 5.2879L45.7936 7.2681L47.6696 7.5341L47.9504 5.5539ZM44.9356 6.22164C44.8395 7.92444 44.5219 10.6182 44.2542 11.93L46.2138 12.33C46.5061 10.8978 46.8325 8.10356 46.9324 6.33436L44.9356 6.22164ZM44.9895 13.0996L46.5995 13.5056L47.0885 11.5664L45.4785 11.1604L44.9895 13.0996ZM47.7559 12.9464C47.8398 12.7599 47.9292 12.6099 48.136 12.3572L46.588 11.0908C46.2908 11.4541 46.1002 11.7521 45.9321 12.1256L47.7559 12.9464ZM48.1319 12.3622C48.7872 11.5716 49.907 11.072 51.254 11.072V9.072C49.437 9.072 47.7008 9.74837 46.5921 11.0858L48.1319 12.3622ZM51.254 11.072C51.6868 11.072 51.9835 11.1919 52.1471 11.3167C52.2982 11.432 52.34 11.5465 52.34 11.654H54.34C54.34 9.95734 52.7563 9.072 51.254 9.072V11.072ZM52.34 11.654C52.34 12.0077 52.1662 12.4066 51.3505 12.7128C50.4904 13.0357 49.0733 13.1658 47.0494 12.8892L46.7786 14.8708C48.9547 15.1682 50.7506 15.0743 52.0535 14.5852C53.4008 14.0794 54.34 13.0783 54.34 11.654H52.34ZM45.9536 14.1586L46.4856 15.9926L48.4064 15.4354L47.8744 13.6014L45.9536 14.1586ZM47.3622 16.7105C50.3623 16.9629 52.5732 16.6063 54.0686 15.6993C55.6379 14.7474 56.286 13.2722 56.286 11.696H54.286C54.286 12.6678 53.9261 13.4466 53.0314 13.9892C52.0628 14.5767 50.3537 14.9551 47.5298 14.7175L47.3622 16.7105ZM56.286 11.696C56.286 9.34253 54.2966 7.49 51.408 7.49V9.49C53.4194 9.49 54.286 10.6615 54.286 11.696H56.286ZM51.408 7.49C49.7397 7.49 48.1455 7.9555 46.6909 9.0105L47.8651 10.6295C48.9585 9.8365 50.1363 9.49 51.408 9.49V7.49ZM48.2705 9.94189C48.3682 9.14689 48.6149 7.48618 48.7832 6.77402L46.8368 6.31397C46.6411 7.14182 46.3838 8.89711 46.2855 9.69811L48.2705 9.94189ZM62.594 3.898L63.584 4.03942L63.745 2.91222L62.6064 2.89808L62.594 3.898ZM60.34 3.87L60.3524 2.87008L59.0865 2.85435L59.3644 4.08951L60.34 3.87ZM70.238 12.704L71.0701 13.2587L71.4827 12.6397L71.0085 12.0666L70.238 12.704ZM68.964 11.164L69.7345 10.5266L68.8738 9.48618L68.1296 10.6128L68.964 11.164ZM62.412 5.76L61.4132 5.71006L61.4127 5.72299L62.412 5.76ZM62.6064 2.89808L60.3524 2.87008L60.3276 4.86992L62.5816 4.89792L62.6064 2.89808ZM59.3644 4.08951C59.4693 4.55579 59.522 5.1497 59.522 5.76H61.522C61.522 5.0543 61.4627 4.30421 61.3156 3.65049L59.3644 4.08951ZM59.522 5.76C59.522 6.34449 59.4877 7.54561 59.4524 8.8622C59.4175 10.1638 59.382 11.5679 59.382 12.522H61.382C61.382 11.6001 61.4165 10.2252 61.4516 8.9158C61.4863 7.62139 61.522 6.37951 61.522 5.76H59.522ZM59.382 12.522C59.382 13.9355 59.8295 15.1004 60.7688 15.8873C61.6761 16.6474 62.8889 16.924 64.162 16.924V14.924C63.1391 14.924 62.4619 14.6966 62.0532 14.3542C61.6765 14.0386 61.382 13.5025 61.382 12.522H59.382ZM64.162 16.924C67.7901 16.924 70.0532 14.784 71.0701 13.2587L69.406 12.1493C68.6308 13.312 66.9179 14.924 64.162 14.924V16.924ZM71.0085 12.0666L69.7345 10.5266L68.1935 11.8014L69.4675 13.3414L71.0085 12.0666ZM68.1296 10.6128C67.2196 11.9905 66.0179 13.02 64.176 13.02V15.02C66.9541 15.02 68.6924 13.3895 69.7984 11.7152L68.1296 10.6128ZM64.176 13.02C63.7472 13.02 63.5376 12.9258 63.4452 12.8478C63.3854 12.7974 63.244 12.6473 63.244 12.144H61.244C61.244 13.0547 61.5226 13.8426 62.1558 14.3767C62.7564 14.8832 63.5128 15.02 64.176 15.02V13.02ZM63.244 12.144C63.244 10.4306 63.3551 7.31547 63.4113 5.79701L61.4127 5.72299C61.3569 7.22853 61.244 10.3854 61.244 12.144H63.244ZM63.4108 5.80994C63.4371 5.28263 63.504 4.59921 63.584 4.03942L61.6041 3.75658C61.516 4.37279 61.4429 5.11737 61.4132 5.71006L63.4108 5.80994ZM73.794 7.888L73.8876 6.89239L72.7267 6.78331L72.7958 7.94722L73.794 7.888ZM73.892 9.54L72.8938 9.59922L72.9463 10.4854L73.8325 10.5382L73.892 9.54ZM79.982 9.554L80.8868 9.1282L80.5968 8.5119L79.9171 8.55611L79.982 9.554ZM80.766 11.01L80.6665 12.005L82.6481 12.2032L81.6235 10.4955L80.766 11.01ZM79.002 10.842L79.0968 9.8465L78.1111 9.75263L78.0075 10.7373L79.002 10.842ZM78.862 12.172L77.8675 12.0673L77.7633 13.0576L78.7531 13.166L78.862 12.172ZM82.18 12.62L81.9873 13.6012L82.6437 13.7302L83.0134 13.1726L82.18 12.62ZM83.034 11.332L83.8674 11.8846L84.3326 11.183L83.7206 10.605L83.034 11.332ZM82.404 10.618L83.2293 10.0533L83.2262 10.0488L82.404 10.618ZM81.676 9.372L81.5438 8.38077L80.118 8.57088L80.7929 9.84115L81.676 9.372ZM83.916 8.938L84.1684 9.90562L85.0551 9.67432L84.9019 8.77089L83.916 8.938ZM83.636 7.286L84.6219 7.11889L84.4388 6.03842L83.3796 6.31944L83.636 7.286ZM80.962 7.846L80.0257 8.19713L80.302 8.9339L81.0831 8.83864L80.962 7.846ZM80.724 7.216L79.7753 7.53223L79.7787 7.54232L79.7823 7.55234L80.724 7.216ZM80.514 6.558L80.3789 5.56717L79.2066 5.72702L79.5595 6.85627L80.514 6.558ZM83.09 6.04L83.3531 7.00476L84.2017 6.77334L84.0805 5.9022L83.09 6.04ZM82.866 4.43L83.8565 4.2922L83.6939 3.1236L82.5677 3.47552L82.866 4.43ZM80.108 5.032L79.1285 5.23365L79.3159 6.14378L80.2373 6.0236L80.108 5.032ZM79.856 3.562L80.8465 3.42443L80.7125 2.45987L79.7448 2.56821L79.856 3.562ZM77.98 3.772L77.8688 2.77821L76.6297 2.91691L77.0341 4.09632L77.98 3.772ZM78.428 5.158L78.4606 6.15747L79.7746 6.11462L79.3825 4.85972L78.428 5.158ZM74.046 4.948L74.1628 3.95485L72.9752 3.81513L73.0478 5.00876L74.046 4.948ZM74.144 6.558L73.1459 6.61876L73.1978 7.47241L74.0492 7.55349L74.144 6.558ZM78.862 6.684L79.805 6.35118L79.556 5.64567L78.8089 5.68541L78.862 6.684ZM79.142 7.51L78.1974 7.83855L78.2022 7.85174L79.142 7.51ZM79.324 8L79.3869 8.99802L80.7864 8.90976L80.2471 7.61539L79.324 8ZM76.482 11.136L77.2907 11.7242L78.2153 10.4529L76.672 10.1542L76.482 11.136ZM74.746 10.8L74.936 9.81822L74.1779 9.67148L73.8442 10.3679L74.746 10.8ZM74.144 13.054L75.1439 13.04L75.1438 13.0314L75.1435 13.0228L74.144 13.054ZM82.11 15.616L82.279 16.6016L83.0646 16.4669L83.1085 15.671L82.11 15.616ZM82.208 13.838L83.2065 13.893L83.2773 12.6079L82.0145 12.8569L82.208 13.838ZM72.7958 7.94722L72.8938 9.59922L74.8902 9.48078L74.7922 7.82878L72.7958 7.94722ZM73.8325 10.5382C75.9819 10.6663 78.2778 10.667 80.0469 10.5519L79.9171 8.55611C78.2422 8.66505 76.0301 8.66566 73.9515 8.54177L73.8325 10.5382ZM79.0772 9.9798C79.318 10.4915 79.6006 11.0113 79.9085 11.5245L81.6235 10.4955C81.3434 10.0287 81.094 9.56848 80.8868 9.1282L79.0772 9.9798ZM80.8655 10.015C80.4426 9.97267 79.6794 9.90199 79.0968 9.8465L78.9072 11.8375C79.5006 11.894 80.2495 11.9633 80.6665 12.005L80.8655 10.015ZM78.0075 10.7373L77.8675 12.0673L79.8565 12.2767L79.9965 10.9467L78.0075 10.7373ZM78.7531 13.166C79.7834 13.279 81.2522 13.4569 81.9873 13.6012L82.3727 11.6388C81.5398 11.4751 79.9846 11.289 78.9709 11.178L78.7531 13.166ZM83.0134 13.1726L83.8674 11.8846L82.2006 10.7794L81.3466 12.0674L83.0134 13.1726ZM83.7206 10.605C83.4963 10.3932 83.3558 10.2382 83.2293 10.0533L81.5787 11.1827C81.8162 11.5298 82.0677 11.7948 82.3474 12.059L83.7206 10.605ZM83.2262 10.0488C83.0114 9.73859 82.7979 9.35227 82.5591 8.90285L80.7929 9.84115C81.0301 10.2877 81.2926 10.7694 81.5818 11.1872L83.2262 10.0488ZM81.8082 10.3632C82.6886 10.2458 83.4848 10.084 84.1684 9.90562L83.6636 7.97038C83.0592 8.12804 82.3434 8.27416 81.5438 8.38077L81.8082 10.3632ZM84.9019 8.77089L84.6219 7.11889L82.6501 7.45311L82.9301 9.10511L84.9019 8.77089ZM83.3796 6.31944C82.6853 6.50363 81.91 6.72298 80.841 6.85335L81.0831 8.83864C82.31 8.68902 83.2147 8.43237 83.8924 8.25256L83.3796 6.31944ZM81.8983 7.49487C81.8022 7.23865 81.7337 7.07 81.6657 6.87966L79.7823 7.55234C79.8543 7.754 79.9538 8.00535 80.0257 8.19713L81.8983 7.49487ZM81.6727 6.89977C81.6062 6.70034 81.5391 6.48562 81.4685 6.25973L79.5595 6.85627C79.6289 7.07838 79.7018 7.31166 79.7753 7.53223L81.6727 6.89977ZM80.6491 7.54883C81.6148 7.41715 82.5396 7.22664 83.3531 7.00476L82.8269 5.07524C82.1004 5.27336 81.2612 5.44685 80.3789 5.56717L80.6491 7.54883ZM84.0805 5.9022L83.8565 4.2922L81.8755 4.5678L82.0995 6.1778L84.0805 5.9022ZM82.5677 3.47552C81.7285 3.73778 80.8891 3.92165 79.9787 4.0404L80.2373 6.0236C81.2589 5.89035 82.2115 5.68222 83.1643 5.38448L82.5677 3.47552ZM81.0875 4.83035C80.994 4.37655 80.9137 3.90795 80.8465 3.42443L78.8655 3.69957C78.9384 4.22404 79.026 4.73545 79.1285 5.23365L81.0875 4.83035ZM79.7448 2.56821L77.8688 2.77821L78.0912 4.76579L79.9672 4.55579L79.7448 2.56821ZM77.0341 4.09632C77.197 4.57154 77.3331 5.00707 77.4735 5.45628L79.3825 4.85972C79.2429 4.41293 79.099 3.95246 78.9259 3.44768L77.0341 4.09632ZM78.3954 4.15853C77.1619 4.19875 75.784 4.14557 74.1628 3.95485L73.9292 5.94115C75.64 6.14242 77.1181 6.20124 78.4606 6.15747L78.3954 4.15853ZM73.0478 5.00876L73.1459 6.61876L75.1422 6.49724L75.0442 4.88724L73.0478 5.00876ZM74.0492 7.55349C75.8578 7.72575 77.5455 7.75544 78.9151 7.68259L78.8089 5.68541C77.5465 5.75256 75.9582 5.72625 74.2388 5.5625L74.0492 7.55349ZM77.919 7.01682C78.0184 7.29848 78.0569 7.43435 78.1975 7.83852L80.0865 7.18148C80.0031 6.94165 79.8736 6.54552 79.805 6.35118L77.919 7.01682ZM78.2022 7.85174C78.2461 7.97254 78.3192 8.18837 78.4009 8.38461L80.2471 7.61539C80.1888 7.47563 80.1499 7.35546 80.0818 7.16826L78.2022 7.85174ZM79.2611 7.00198C77.7614 7.09656 75.9237 7.0837 73.8876 6.89239L73.7005 8.88361C75.8363 9.0843 77.7786 9.09944 79.3869 8.99802L79.2611 7.00198ZM76.672 10.1542L74.936 9.81822L74.556 11.7818L76.292 12.1178L76.672 10.1542ZM73.8442 10.3679C73.5181 11.0485 73.1083 11.9267 73.1445 13.0852L75.1435 13.0228C75.1237 12.3893 75.3299 11.8955 75.6478 11.2321L73.8442 10.3679ZM73.1441 13.068C73.163 14.4215 73.794 15.4511 74.8848 16.0838C75.8974 16.6711 77.2409 16.882 78.708 16.882V14.882C77.3751 14.882 76.4506 14.6799 75.8882 14.3537C75.404 14.0729 75.153 13.6885 75.1439 13.04L73.1441 13.068ZM78.708 16.882C79.9026 16.882 81.2341 16.7808 82.279 16.6016L81.941 14.6304C81.0259 14.7873 79.8094 14.882 78.708 14.882V16.882ZM83.1085 15.671L83.2065 13.893L81.2095 13.783L81.1115 15.561L83.1085 15.671ZM82.0145 12.8569C81.0947 13.0383 79.9706 13.146 78.694 13.146V15.146C80.0774 15.146 81.3333 15.0297 82.4015 14.8191L82.0145 12.8569ZM78.694 13.146C77.8092 13.146 77.2926 13.0393 77.0289 12.9094C76.9144 12.853 76.8877 12.8115 76.8855 12.8081C76.8833 12.8047 76.8797 12.7986 76.876 12.785C76.8719 12.7703 76.866 12.7405 76.866 12.69H74.866C74.866 13.1131 74.9684 13.53 75.2105 13.901C75.4498 14.2678 75.7836 14.5255 76.1451 14.7036C76.8334 15.0427 77.7308 15.146 78.694 15.146V13.146ZM76.866 12.69C76.866 12.4165 76.9854 12.144 77.2907 11.7242L75.6733 10.5478C75.3066 11.052 74.866 11.7595 74.866 12.69H76.866ZM96.516 5.004L96.6574 5.99395L97.6707 5.8492L97.5024 4.8396L96.516 5.004ZM87.57 4.948L87.7066 3.95738L86.57 3.8006V4.948H87.57ZM87.57 6.922H86.57V8.0052L87.6497 7.91881L87.57 6.922ZM95.746 6.866L96.7348 7.01546L96.9085 5.866H95.746V6.866ZM94.108 10.814L93.3253 10.1916L93.3249 10.1921L94.108 10.814ZM88.62 14.104L88.3937 13.1299L86.7344 13.5154L87.8798 14.7764L88.62 14.104ZM90.146 15.784L89.4058 16.4564L89.8407 16.9352L90.4558 16.7348L90.146 15.784ZM95.774 11.906L94.9766 11.3026L94.974 11.306L95.774 11.906ZM97.874 6.81L96.9253 6.49377L96.9109 6.53707L96.9005 6.58151L97.874 6.81ZM97.986 6.39L98.2285 5.41986L97.2788 5.18243L97.0212 6.12688L97.986 6.39ZM98.356 4.738C98.356 4.84229 98.2723 4.926 98.168 4.926V2.926C97.1677 2.926 96.356 3.73771 96.356 4.738H98.356ZM98.168 4.926C98.1003 4.926 98.0484 4.89722 98.0184 4.86686C97.9879 4.83592 97.966 4.78986 97.966 4.738H99.966C99.966 3.74904 99.1655 2.926 98.168 2.926V4.926ZM97.966 4.738C97.966 4.6709 97.9941 4.62114 98.0226 4.59264C98.0511 4.56415 98.1009 4.536 98.168 4.536V6.536C99.1543 6.536 99.966 5.72428 99.966 4.738H97.966ZM98.168 4.536C98.2199 4.536 98.2659 4.55785 98.2969 4.58842C98.3272 4.61842 98.356 4.67027 98.356 4.738H96.356C96.356 5.73554 97.179 6.536 98.168 6.536V4.536ZM95.488 4.738C95.488 4.9294 95.5165 5.08952 95.5296 5.1684L97.5024 4.8396C97.4875 4.75048 97.488 4.7426 97.488 4.738H95.488ZM96.3746 4.01405C96.1371 4.04797 95.8776 4.06 95.718 4.06V6.06C95.9504 6.06 96.3069 6.04402 96.6574 5.99395L96.3746 4.01405ZM95.718 4.06H89.236V6.06H95.718V4.06ZM89.236 4.06C88.8191 4.06 88.0668 4.00705 87.7066 3.95738L87.4334 5.93862C87.8852 6.00095 88.7289 6.06 89.236 6.06V4.06ZM86.57 4.948V6.922H88.57V4.948H86.57ZM87.6497 7.91881C87.9682 7.89334 88.613 7.866 89.236 7.866V5.866C88.571 5.866 87.8718 5.89466 87.4902 5.92518L87.6497 7.91881ZM89.236 7.866H95.746V5.866H89.236V7.866ZM94.7572 6.71654C94.5932 7.80151 94.1109 9.20367 93.3253 10.1916L94.8907 11.4364C95.9531 10.1003 96.5348 8.33849 96.7348 7.01546L94.7572 6.71654ZM93.3249 10.1921C92.3281 11.4473 90.9406 12.5382 88.3937 13.1299L88.8463 15.0781C91.8434 14.3818 93.6199 13.0367 94.8911 11.4359L93.3249 10.1921ZM87.8798 14.7764L89.4058 16.4564L90.8862 15.1116L89.3602 13.4316L87.8798 14.7764ZM90.4558 16.7348C93.1307 15.8632 95.1828 14.3609 96.574 12.506L94.974 11.306C93.8452 12.8111 92.1453 14.0808 89.8362 14.8332L90.4558 16.7348ZM96.5714 12.5094C97.8865 10.7716 98.5246 8.41456 98.8475 7.03849L96.9005 6.58151C96.5794 7.94944 96.0135 9.9324 94.9766 11.3026L96.5714 12.5094ZM98.8227 7.12623C98.8729 6.97544 98.9363 6.7062 98.9508 6.65312L97.0212 6.12688C96.9517 6.3818 96.9591 6.39256 96.9253 6.49377L98.8227 7.12623ZM97.7435 7.36014C97.9423 7.40985 98.1446 7.404 98.168 7.404V5.404C98.1531 5.404 98.1452 5.40398 98.1381 5.40388C98.1316 5.40379 98.1303 5.40367 98.1325 5.40379C98.1345 5.4039 98.1435 5.40443 98.1577 5.40626C98.1714 5.40802 98.1962 5.41178 98.2285 5.41986L97.7435 7.36014ZM98.168 7.404C99.6303 7.404 100.834 6.20028 100.834 4.738H98.834C98.834 5.09571 98.5257 5.404 98.168 5.404V7.404ZM100.834 4.738C100.834 3.26716 99.6357 2.058 98.168 2.058V4.058C98.5203 4.058 98.834 4.36084 98.834 4.738H100.834ZM98.168 2.058C96.6917 2.058 95.488 3.26171 95.488 4.738H97.488C97.488 4.36628 97.7963 4.058 98.168 4.058V2.058ZM102.214 5.074L102.238 4.0743L101.138 4.04746L101.217 5.14525L102.214 5.074ZM102.2 15.238H101.2V16.238H102.2V15.238ZM104.132 15.238V16.238H105.132V15.238H104.132ZM104.118 14.482V13.482H103.082L103.119 14.5177L104.118 14.482ZM110.866 14.482H111.866V13.482H110.866V14.482ZM110.852 15.238H109.852V16.238H110.852V15.238ZM112.784 15.238V16.238H113.784V15.238H112.784ZM112.784 5.074L113.782 5.14052L113.857 4.01285L112.729 4.07554L112.784 5.074ZM104.118 6.88V5.88H103.118V6.88H104.118ZM110.88 6.88H111.88V5.88H110.88V6.88ZM110.88 12.69V13.69H111.88V12.69H110.88ZM104.118 12.69H103.118V13.69H104.118V12.69ZM101.217 5.14525C101.241 5.49373 101.242 6.02716 101.242 6.432H103.242C103.242 6.05283 103.243 5.43827 103.211 5.00275L101.217 5.14525ZM101.242 6.432V13.278H103.242V6.432H101.242ZM101.242 13.278C101.242 13.5993 101.232 14.0599 101.221 14.4573C101.212 14.829 101.2 15.1858 101.2 15.238H103.2C103.2 15.2399 103.202 15.1762 103.206 15.026C103.21 14.8914 103.215 14.7103 103.221 14.5102C103.231 14.1131 103.242 13.6287 103.242 13.278H101.242ZM102.2 16.238H104.132V14.238H102.2V16.238ZM105.132 15.238C105.132 15.1915 105.132 14.8558 105.117 14.4463L103.119 14.5177C103.132 14.8922 103.132 15.2005 103.132 15.238H105.132ZM104.118 15.482H110.866V13.482H104.118V15.482ZM109.866 14.482C109.866 14.6739 109.863 14.8469 109.859 14.9758C109.858 15.0401 109.856 15.0933 109.855 15.1327C109.854 15.1549 109.852 15.2094 109.852 15.238H111.852C111.852 15.2526 111.852 15.2564 111.854 15.1976C111.855 15.1561 111.857 15.0981 111.859 15.0277C111.862 14.8871 111.866 14.6961 111.866 14.482H109.866ZM110.852 16.238H112.784V14.238H110.852V16.238ZM113.784 15.238C113.784 15.1988 113.777 14.8277 113.77 14.4317C113.763 14.0188 113.756 13.555 113.756 13.292H111.756C111.756 13.575 111.763 14.0562 111.77 14.4658C111.774 14.6722 111.777 14.8631 111.78 15.0055C111.781 15.0769 111.782 15.1357 111.783 15.1784C111.784 15.2283 111.784 15.2425 111.784 15.238H113.784ZM113.756 13.292V6.432H111.756V13.292H113.756ZM113.756 6.432C113.756 6.00295 113.756 5.52068 113.782 5.14052L111.786 5.00748C111.756 5.46732 111.756 6.02105 111.756 6.432H113.756ZM112.729 4.07554C112.256 4.10177 111.751 4.102 111.398 4.102V6.102C111.745 6.102 112.304 6.10223 112.839 6.07246L112.729 4.07554ZM111.398 4.102H103.698V6.102H111.398V4.102ZM103.698 4.102C103.336 4.102 102.82 4.08848 102.238 4.0743L102.19 6.0737C102.756 6.08752 103.304 6.102 103.698 6.102V4.102ZM104.118 7.88H110.88V5.88H104.118V7.88ZM109.88 6.88V12.69H111.88V6.88H109.88ZM110.88 11.69H104.118V13.69H110.88V11.69ZM105.118 12.69V6.88H103.118V12.69H105.118ZM125.706 3.534L126.527 2.9636L126.071 2.30705L125.331 2.60715L125.706 3.534ZM124.6 3.982L124.225 3.05515L123.065 3.52483L123.779 4.55239L124.6 3.982ZM125.622 5.788L125.126 6.65624L127.993 8.29488L126.516 5.34078L125.622 5.788ZM125.524 5.732L126.02 4.86376L125.639 4.64599L125.221 4.77907L125.524 5.732ZM121.506 5.9L120.612 5.45279L119.888 6.9H121.506V5.9ZM122.402 4.402L123.227 4.96753L123.982 3.86598L122.712 3.45139L122.402 4.402ZM120.344 3.73L120.654 2.77939L119.648 2.45083L119.377 3.47411L120.344 3.73ZM119.714 5.186L118.866 4.656L118.855 4.67326L118.845 4.69095L119.714 5.186ZM115.346 9.694L114.828 8.83867L113.562 9.6057L114.746 10.494L115.346 9.694ZM116.914 10.87L116.314 11.67L116.884 12.0976L117.474 11.6982L116.914 10.87ZM120.456 7.482V6.482H119.964L119.664 6.87185L120.456 7.482ZM124.39 7.482L125.367 7.69333L125.629 6.482H124.39V7.482ZM122.402 11.29L121.652 10.6281L121.651 10.6294L122.402 11.29ZM116.76 14.762L116.474 13.8039L114.766 14.3146L116.092 15.5059L116.76 14.762ZM118.412 16.246L117.744 16.9899L118.206 17.4049L118.783 17.1748L118.412 16.246ZM124.054 12.284L123.281 11.65L123.278 11.6537L124.054 12.284ZM126.504 7.622L125.552 7.31722L125.549 7.32444L125.547 7.33169L126.504 7.622ZM126.966 6.614L127.831 7.11504L128.32 6.27033L127.488 5.76097L126.966 6.614ZM125.776 5.886L125.39 4.96366L123.587 5.71894L125.254 6.73903L125.776 5.886ZM126.812 5.452L127.198 6.37434L128.174 5.96566L127.711 5.01453L126.812 5.452ZM127.358 2.904L128.176 2.32905L127.719 1.67876L126.983 1.97715L127.358 2.904ZM126.252 3.352L125.877 2.42515L124.683 2.90857L125.447 3.9452L126.252 3.352ZM127.386 5.284L126.492 5.73121L126.914 6.57586L127.781 6.20254L127.386 5.284ZM128.492 4.808L128.887 5.72654L129.871 5.30313L129.381 4.35065L128.492 4.808ZM125.331 2.60715L124.225 3.05515L124.975 4.90885L126.081 4.46085L125.331 2.60715ZM123.779 4.55239C124.084 4.99193 124.448 5.67682 124.728 6.23521L126.516 5.34078C126.236 4.77918 125.816 3.98007 125.421 3.4116L123.779 4.55239ZM126.118 4.91976L126.02 4.86376L125.028 6.60024L125.126 6.65624L126.118 4.91976ZM125.221 4.77907C125.029 4.84024 124.658 4.9 124.306 4.9V6.9C124.822 6.9 125.403 6.81976 125.827 6.68492L125.221 4.77907ZM124.306 4.9H121.506V6.9H124.306V4.9ZM122.4 6.34721C122.377 6.39476 122.352 6.43036 122.359 6.4197C122.366 6.40936 122.405 6.35276 122.442 6.27721L120.654 5.38279C120.677 5.33524 120.702 5.29964 120.695 5.3103C120.688 5.32064 120.649 5.37724 120.612 5.45279L122.4 6.34721ZM122.442 6.27721C122.575 6.0126 122.915 5.42201 123.227 4.96753L121.577 3.83647C121.217 4.36199 120.829 5.0314 120.654 5.38279L122.442 6.27721ZM122.712 3.45139L120.654 2.77939L120.034 4.6806L122.092 5.3526L122.712 3.45139ZM119.377 3.47411C119.279 3.84587 119.027 4.39813 118.866 4.656L120.562 5.716C120.821 5.30187 121.157 4.56613 121.311 3.98589L119.377 3.47411ZM118.845 4.69095C118.208 5.80911 117.081 7.47377 114.828 8.83867L115.864 10.5493C118.511 8.94623 119.848 6.97089 120.583 5.68105L118.845 4.69095ZM114.746 10.494L116.314 11.67L117.514 10.07L115.946 8.894L114.746 10.494ZM117.474 11.6982C118.966 10.689 120.259 9.37709 121.248 8.09215L119.664 6.87185C118.777 8.02291 117.634 9.17498 116.354 10.0418L117.474 11.6982ZM120.456 8.482H124.39V6.482H120.456V8.482ZM123.413 7.27067C123.225 8.13599 122.494 9.67562 121.652 10.6281L123.152 11.9519C124.214 10.7484 125.107 8.9 125.367 7.69333L123.413 7.27067ZM121.651 10.6294C120.536 11.8969 119.14 13.0066 116.474 13.8039L117.046 15.7201C120.092 14.8094 121.804 13.4831 123.153 11.9506L121.651 10.6294ZM116.092 15.5059L117.744 16.9899L119.08 15.5021L117.428 14.0181L116.092 15.5059ZM118.783 17.1748C121.555 16.0686 123.381 14.6988 124.83 12.9143L123.278 11.6537C122.067 13.1452 120.533 14.3234 118.041 15.3172L118.783 17.1748ZM124.827 12.918C126.207 11.2346 127.057 9.24378 127.461 7.91231L125.547 7.33169C125.195 8.49222 124.449 10.2254 123.281 11.65L124.827 12.918ZM127.456 7.92678C127.538 7.67048 127.697 7.34722 127.831 7.11504L126.101 6.11296C125.927 6.41278 125.694 6.87352 125.552 7.31722L127.456 7.92678ZM127.488 5.76097L126.298 5.03297L125.254 6.73903L126.444 7.46703L127.488 5.76097ZM126.162 6.80834L127.198 6.37434L126.426 4.52966L125.39 4.96366L126.162 6.80834ZM127.711 5.01453C127.443 4.46336 126.914 3.52031 126.527 2.9636L124.885 4.10439C125.198 4.55569 125.677 5.40463 125.913 5.88947L127.711 5.01453ZM126.983 1.97715L125.877 2.42515L126.627 4.27885L127.733 3.83085L126.983 1.97715ZM125.447 3.9452C125.787 4.40715 126.205 5.15796 126.492 5.73121L128.28 4.83679C127.979 4.23404 127.501 3.36085 127.057 2.7588L125.447 3.9452ZM127.781 6.20254L128.887 5.72654L128.097 3.88946L126.991 4.36546L127.781 6.20254ZM129.381 4.35065C129.115 3.83363 128.574 2.89541 128.176 2.32905L126.54 3.47895C126.87 3.94859 127.365 4.80237 127.603 5.26535L129.381 4.35065ZM132.272 4.262L132.413 3.27205L131.272 3.10899V4.262H132.272ZM132.272 6.068H131.272V7.13934L132.341 7.06563L132.272 6.068ZM140.63 6.068L140.556 7.06527L141.63 7.14481V6.068H140.63ZM140.63 4.262H141.63V3.10899L140.489 3.27205L140.63 4.262ZM141.806 8.322L142.686 8.7961L143.133 7.96659L142.332 7.47133L141.806 8.322ZM140.56 7.552L141.086 6.70133L140.644 6.42817L140.166 6.63285L140.56 7.552ZM130.984 7.608L131.055 6.61054L129.984 6.53402V7.608H130.984ZM130.984 9.428H129.984V10.5278L131.079 10.4235L130.984 9.428ZM139.37 9.358L140.322 9.66401L140.742 8.358H139.37V9.358ZM137.928 11.78L137.214 11.0794L137.212 11.0821L137.928 11.78ZM133.084 14.23L132.882 13.2507L131.201 13.5981L132.332 14.889L133.084 14.23ZM134.47 15.812L133.718 16.471L134.134 16.9454L134.741 16.7747L134.47 15.812ZM139.468 12.788L138.726 12.1176L138.725 12.1183L139.468 12.788ZM141.54 8.91L140.6 8.56826L140.592 8.5912L140.585 8.61453L141.54 8.91ZM131.272 4.262V6.068H133.272V4.262H131.272ZM132.341 7.06563C132.715 7.0398 133.292 7.026 133.728 7.026V5.026C133.268 5.026 132.641 5.0402 132.203 5.07037L132.341 7.06563ZM133.728 7.026H139.09V5.026H133.728V7.026ZM139.09 7.026C139.587 7.026 140.216 7.04005 140.556 7.06527L140.704 5.07073C140.288 5.03995 139.601 5.026 139.09 5.026V7.026ZM141.63 6.068V4.262H139.63V6.068H141.63ZM140.489 3.27205C140.177 3.31659 139.559 3.332 139.118 3.332V5.332C139.545 5.332 140.299 5.3194 140.771 5.25195L140.489 3.27205ZM139.118 3.332H133.728V5.332H139.118V3.332ZM133.728 3.332C133.251 3.332 132.727 3.3169 132.413 3.27205L132.131 5.25195C132.601 5.3191 133.253 5.332 133.728 5.332V3.332ZM142.332 7.47133L141.086 6.70133L140.034 8.40267L141.28 9.17267L142.332 7.47133ZM140.166 6.63285C140.185 6.62461 140.141 6.64407 140.005 6.66316C139.882 6.68034 139.723 6.692 139.538 6.692V8.692C140.022 8.692 140.566 8.6372 140.954 8.47115L140.166 6.63285ZM139.538 6.692H132.608V8.692H139.538V6.692ZM132.608 6.692C132.217 6.692 131.655 6.65341 131.055 6.61054L130.913 8.60546C131.489 8.64658 132.131 8.692 132.608 8.692V6.692ZM129.984 7.608V9.428H131.984V7.608H129.984ZM131.079 10.4235C131.622 10.3718 132.287 10.358 132.608 10.358V8.358C132.257 8.358 131.522 8.37224 130.889 8.4325L131.079 10.4235ZM132.608 10.358H139.37V8.358H132.608V10.358ZM138.418 9.05199C138.202 9.72257 137.838 10.4441 137.214 11.0794L138.642 12.4806C139.53 11.5759 140.034 10.5614 140.322 9.66401L138.418 9.05199ZM137.212 11.0821C136.309 12.0083 134.82 12.8501 132.882 13.2507L133.286 15.2093C135.548 14.7419 137.419 13.7357 138.644 12.4779L137.212 11.0821ZM132.332 14.889L133.718 16.471L135.222 15.153L133.836 13.571L132.332 14.889ZM134.741 16.7747C136.678 16.2297 138.647 15.1914 140.211 13.4577L138.725 12.1183C137.461 13.5206 135.846 14.3863 134.199 14.8493L134.741 16.7747ZM140.21 13.4584C141.395 12.1474 142.052 10.6375 142.495 9.20547L140.585 8.61453C140.188 9.89849 139.641 11.1046 138.726 12.1176L140.21 13.4584ZM142.48 9.25174C142.519 9.1451 142.61 8.93725 142.686 8.7961L140.926 7.8479C140.806 8.07074 140.673 8.3669 140.6 8.56826L142.48 9.25174ZM147.49 4.038L147.611 3.04538L146.846 2.95193L146.561 3.66797L147.49 4.038ZM146.832 5.69L145.903 5.31997L145.426 6.51857L146.705 6.68195L146.832 5.69ZM154.406 7.44L154.058 8.37765L154.966 8.71415L155.332 7.81777L154.406 7.44ZM155.12 5.69L156.046 6.06777L156.444 5.09299L155.45 4.74591L155.12 5.69ZM146.846 7.804L147.012 6.81779L146.203 6.68205L145.911 7.44865L146.846 7.804ZM146.202 9.498L145.267 9.14265L144.831 10.2901L146.043 10.4853L146.202 9.498ZM153.482 11.262L153.125 12.196L154.051 12.5504L154.413 11.627L153.482 11.262ZM154.168 9.512L155.099 9.87696L155.478 8.91023L154.498 8.56791L154.168 9.512ZM146.132 11.808L146.288 10.8202L145.498 10.6954L145.203 11.4392L146.132 11.808ZM145.432 13.572L144.503 13.2032L144.038 14.3741L145.284 14.5609L145.432 13.572ZM153.986 15.658L153.603 16.5817L154.507 16.9568L154.901 16.0607L153.986 15.658ZM154.756 13.908L155.671 14.3107L156.098 13.3406L155.105 12.9708L154.756 13.908ZM146.561 3.66797L145.903 5.31997L147.761 6.06003L148.419 4.40803L146.561 3.66797ZM146.705 6.68195C148.626 6.92718 152.524 7.80895 154.058 8.37765L154.754 6.50235C153.04 5.86705 148.986 4.95682 146.959 4.69805L146.705 6.68195ZM155.332 7.81777L156.046 6.06777L154.194 5.31223L153.48 7.06223L155.332 7.81777ZM155.45 4.74591C153.595 4.09811 149.486 3.27439 147.611 3.04538L147.369 5.03062C149.162 5.24961 153.117 6.04989 154.79 6.63409L155.45 4.74591ZM145.911 7.44865L145.267 9.14265L147.137 9.85335L147.781 8.15935L145.911 7.44865ZM146.043 10.4853C148.106 10.8176 151.611 11.6167 153.125 12.196L153.839 10.328C152.133 9.67531 148.47 8.85039 146.361 8.51073L146.043 10.4853ZM154.413 11.627L155.099 9.87696L153.237 9.14704L152.551 10.897L154.413 11.627ZM154.498 8.56791C152.65 7.92282 149.026 7.15583 147.012 6.81779L146.68 8.79021C148.67 9.12417 152.158 9.86918 153.838 10.4561L154.498 8.56791ZM145.203 11.4392L144.503 13.2032L146.361 13.9408L147.061 12.1768L145.203 11.4392ZM145.284 14.5609C147.505 14.8941 151.83 15.8462 153.603 16.5817L154.369 14.7343C152.362 13.9018 147.839 12.9219 145.58 12.5831L145.284 14.5609ZM154.901 16.0607L155.671 14.3107L153.841 13.5053L153.071 15.2553L154.901 16.0607ZM155.105 12.9708C153.101 12.2249 148.718 11.2039 146.288 10.8202L145.976 12.7958C148.334 13.1681 152.575 14.1631 154.407 14.8452L155.105 12.9708ZM161.224 4.36L161.781 3.52978L161.077 3.05662L160.495 3.67509L161.224 4.36ZM159.908 5.76L159.179 5.07509L158.387 5.91756L159.335 6.57976L159.908 5.76ZM163.408 8.784L162.675 9.46445L163.388 10.2323L164.122 9.48421L163.408 8.784ZM164.836 7.328L165.55 8.02821L166.226 7.33877L165.561 6.63894L164.836 7.328ZM159.474 13.684L159.334 12.6938L157.797 12.9107L158.63 14.2209L159.474 13.684ZM160.65 15.532L159.806 16.0689L160.163 16.6293L160.818 16.5178L160.65 15.532ZM165.844 13.558L165.328 12.7014L165.327 12.702L165.844 13.558ZM171.024 8.378L171.895 8.86857L172.169 8.38227L171.899 7.89394L171.024 8.378ZM169.932 6.404L170.807 5.91994L169.856 4.2014L169.026 5.98111L169.932 6.404ZM164.836 11.85L164.327 10.989L164.323 10.9917L164.836 11.85ZM160.495 3.67509L159.179 5.07509L160.637 6.44491L161.953 5.04491L160.495 3.67509ZM159.335 6.57976C160.301 7.2547 161.997 8.7344 162.675 9.46445L164.141 8.10355C163.363 7.2656 161.559 5.6933 160.481 4.94024L159.335 6.57976ZM164.122 9.48421L165.55 8.02821L164.122 6.62779L162.694 8.08379L164.122 9.48421ZM165.561 6.63894C164.683 5.71627 162.801 4.21447 161.781 3.52978L160.667 5.19022C161.607 5.82153 163.365 7.23173 164.111 8.01706L165.561 6.63894ZM158.63 14.2209L159.806 16.0689L161.494 14.9951L160.318 13.1471L158.63 14.2209ZM160.818 16.5178C162.94 16.1566 164.863 15.3185 166.361 14.414L165.327 12.702C163.997 13.5055 162.308 14.2354 160.482 14.5462L160.818 16.5178ZM166.36 14.4146C168.75 12.9744 170.74 10.9208 171.895 8.86857L170.153 7.88743C169.18 9.61521 167.446 11.4256 165.328 12.7014L166.36 14.4146ZM171.899 7.89394L170.807 5.91994L169.057 6.88806L170.149 8.86206L171.899 7.89394ZM169.026 5.98111C168.23 7.6856 166.55 9.67604 164.327 10.989L165.345 12.711C167.91 11.196 169.87 8.9024 170.838 6.82689L169.026 5.98111ZM164.323 10.9917C163.078 11.7363 161.384 12.4047 159.334 12.6938L159.614 14.6742C161.932 14.3473 163.878 13.5877 165.349 12.7083L164.323 10.9917ZM183.106 3.534L183.927 2.9636L183.471 2.30705L182.731 2.60715L183.106 3.534ZM182 3.982L181.625 3.05515L180.465 3.52483L181.179 4.55239L182 3.982ZM183.022 5.788L182.526 6.65624L185.393 8.29488L183.916 5.34078L183.022 5.788ZM182.924 5.732L183.42 4.86376L183.039 4.64599L182.621 4.77907L182.924 5.732ZM178.906 5.9L178.012 5.45279L177.288 6.9H178.906V5.9ZM179.802 4.402L180.627 4.96753L181.382 3.86598L180.112 3.45139L179.802 4.402ZM177.744 3.73L178.054 2.77939L177.048 2.45083L176.777 3.47411L177.744 3.73ZM177.114 5.186L176.266 4.656L176.255 4.67326L176.245 4.69095L177.114 5.186ZM172.746 9.694L172.228 8.83867L170.962 9.6057L172.146 10.494L172.746 9.694ZM174.314 10.87L173.714 11.67L174.284 12.0976L174.874 11.6982L174.314 10.87ZM177.856 7.482V6.482H177.364L177.064 6.87185L177.856 7.482ZM181.79 7.482L182.767 7.69333L183.029 6.482H181.79V7.482ZM179.802 11.29L179.052 10.6281L179.051 10.6294L179.802 11.29ZM174.16 14.762L173.874 13.8039L172.166 14.3146L173.492 15.5059L174.16 14.762ZM175.812 16.246L175.144 16.9899L175.606 17.4049L176.183 17.1748L175.812 16.246ZM181.454 12.284L180.681 11.65L180.678 11.6537L181.454 12.284ZM183.904 7.622L182.952 7.31722L182.949 7.32444L182.947 7.33169L183.904 7.622ZM184.366 6.614L185.231 7.11504L185.72 6.27033L184.888 5.76097L184.366 6.614ZM183.176 5.886L182.79 4.96366L180.987 5.71894L182.654 6.73903L183.176 5.886ZM184.212 5.452L184.598 6.37434L185.574 5.96566L185.111 5.01453L184.212 5.452ZM184.758 2.904L185.576 2.32905L185.119 1.67876L184.383 1.97715L184.758 2.904ZM183.652 3.352L183.277 2.42515L182.083 2.90857L182.847 3.9452L183.652 3.352ZM184.786 5.284L183.892 5.73121L184.314 6.57586L185.181 6.20254L184.786 5.284ZM185.892 4.808L186.287 5.72654L187.271 5.30313L186.781 4.35065L185.892 4.808ZM182.731 2.60715L181.625 3.05515L182.375 4.90885L183.481 4.46085L182.731 2.60715ZM181.179 4.55239C181.484 4.99193 181.848 5.67682 182.128 6.23521L183.916 5.34078C183.636 4.77918 183.216 3.98007 182.821 3.4116L181.179 4.55239ZM183.518 4.91976L183.42 4.86376L182.428 6.60024L182.526 6.65624L183.518 4.91976ZM182.621 4.77907C182.429 4.84024 182.058 4.9 181.706 4.9V6.9C182.222 6.9 182.803 6.81976 183.227 6.68492L182.621 4.77907ZM181.706 4.9H178.906V6.9H181.706V4.9ZM179.8 6.34721C179.777 6.39476 179.752 6.43036 179.759 6.4197C179.766 6.40936 179.805 6.35276 179.842 6.27721L178.054 5.38279C178.077 5.33524 178.102 5.29964 178.095 5.3103C178.088 5.32064 178.049 5.37724 178.012 5.45279L179.8 6.34721ZM179.842 6.27721C179.975 6.0126 180.315 5.42201 180.627 4.96753L178.977 3.83647C178.617 4.36199 178.229 5.0314 178.054 5.38279L179.842 6.27721ZM180.112 3.45139L178.054 2.77939L177.434 4.6806L179.492 5.3526L180.112 3.45139ZM176.777 3.47411C176.679 3.84587 176.427 4.39813 176.266 4.656L177.962 5.716C178.221 5.30187 178.557 4.56613 178.711 3.98589L176.777 3.47411ZM176.245 4.69095C175.608 5.80911 174.481 7.47377 172.228 8.83867L173.264 10.5493C175.911 8.94623 177.248 6.97089 177.983 5.68105L176.245 4.69095ZM172.146 10.494L173.714 11.67L174.914 10.07L173.346 8.894L172.146 10.494ZM174.874 11.6982C176.366 10.689 177.659 9.37709 178.648 8.09215L177.064 6.87185C176.177 8.02291 175.034 9.17498 173.754 10.0418L174.874 11.6982ZM177.856 8.482H181.79V6.482H177.856V8.482ZM180.813 7.27067C180.625 8.13599 179.894 9.67562 179.052 10.6281L180.552 11.9519C181.614 10.7484 182.507 8.9 182.767 7.69333L180.813 7.27067ZM179.051 10.6294C177.936 11.8969 176.54 13.0066 173.874 13.8039L174.446 15.7201C177.492 14.8094 179.204 13.4831 180.553 11.9506L179.051 10.6294ZM173.492 15.5059L175.144 16.9899L176.48 15.5021L174.828 14.0181L173.492 15.5059ZM176.183 17.1748C178.955 16.0686 180.781 14.6988 182.23 12.9143L180.678 11.6537C179.467 13.1452 177.933 14.3234 175.441 15.3172L176.183 17.1748ZM182.227 12.918C183.607 11.2346 184.457 9.24378 184.861 7.91231L182.947 7.33169C182.595 8.49222 181.849 10.2254 180.681 11.65L182.227 12.918ZM184.856 7.92678C184.938 7.67048 185.097 7.34722 185.231 7.11504L183.501 6.11296C183.327 6.41278 183.094 6.87352 182.952 7.31722L184.856 7.92678ZM184.888 5.76097L183.698 5.03297L182.654 6.73903L183.844 7.46703L184.888 5.76097ZM183.562 6.80834L184.598 6.37434L183.826 4.52966L182.79 4.96366L183.562 6.80834ZM185.111 5.01453C184.843 4.46336 184.314 3.52031 183.927 2.9636L182.285 4.10439C182.598 4.55569 183.077 5.40463 183.313 5.88947L185.111 5.01453ZM184.383 1.97715L183.277 2.42515L184.027 4.27885L185.133 3.83085L184.383 1.97715ZM182.847 3.9452C183.187 4.40715 183.605 5.15796 183.892 5.73121L185.68 4.83679C185.379 4.23404 184.901 3.36085 184.457 2.7588L182.847 3.9452ZM185.181 6.20254L186.287 5.72654L185.497 3.88946L184.391 4.36546L185.181 6.20254ZM186.781 4.35065C186.515 3.83363 185.974 2.89541 185.576 2.32905L183.94 3.47895C184.27 3.94859 184.765 4.80237 185.003 5.26535L186.781 4.35065ZM199.892 6.18L200.645 6.8385L201.325 6.06144L200.526 5.40673L199.892 6.18ZM198.492 5.032L199.126 4.25873L198.699 3.9088L198.176 4.08332L198.492 5.032ZM187.81 5.06L187.962 4.07163L186.81 3.89439V5.06H187.81ZM187.81 7.02H186.81V8.11976L187.905 8.0155L187.81 7.02ZM196.826 6.922L197.694 7.41928L198.552 5.922H196.826V6.922ZM193.27 10.954L192.612 11.7073L193.241 12.2558L193.893 11.7362L193.27 10.954ZM190.904 9.008L191.504 8.208L190.884 7.74263L190.278 8.22785L190.904 9.008ZM189.42 10.198L188.794 9.41785L187.766 10.2427L188.837 11.0108L189.42 10.198ZM192.5 12.886L191.787 13.587L191.788 13.5877L192.5 12.886ZM195.174 15.91L194.374 16.51L194.991 17.3328L195.796 16.6928L195.174 15.91ZM196.812 14.608L197.434 15.3908L198.234 14.7554L197.582 13.9694L196.812 14.608ZM194.642 12.242L194.013 11.4644L193.149 12.1632L193.935 12.9491L194.642 12.242ZM199.416 6.768L198.564 6.2439V6.2439L199.416 6.768ZM200.526 5.40673L199.126 4.25873L197.858 5.80527L199.258 6.95327L200.526 5.40673ZM198.176 4.08332C198.032 4.1313 197.681 4.186 197.19 4.186V6.186C197.763 6.186 198.364 6.1287 198.808 5.98068L198.176 4.08332ZM197.19 4.186H189.42V6.186H197.19V4.186ZM189.42 4.186C189.002 4.186 188.284 4.12112 187.962 4.07163L187.658 6.04837C188.064 6.11088 188.886 6.186 189.42 6.186V4.186ZM186.81 5.06V7.02H188.81V5.06H186.81ZM187.905 8.0155C188.206 7.9868 188.915 7.922 189.42 7.922V5.922C188.805 5.922 188.002 5.9972 187.715 6.0245L187.905 8.0155ZM189.42 7.922H196.826V5.922H189.42V7.922ZM195.958 6.42472C195.364 7.46112 194.132 8.989 192.647 10.1718L193.893 11.7362C195.572 10.399 196.972 8.67888 197.694 7.41928L195.958 6.42472ZM193.928 10.2007C193.035 9.42111 192.091 8.6479 191.504 8.208L190.304 9.808C190.837 10.2081 191.741 10.9469 192.612 11.7073L193.928 10.2007ZM190.278 8.22785L188.794 9.41785L190.046 10.9782L191.53 9.78815L190.278 8.22785ZM188.837 11.0108C189.619 11.5711 191.004 12.7904 191.787 13.587L193.213 12.185C192.372 11.3296 190.901 10.0289 190.003 9.38518L188.837 11.0108ZM191.788 13.5877C192.682 14.4957 193.824 15.7761 194.374 16.51L195.974 15.31C195.348 14.4759 194.138 13.1243 193.212 12.1843L191.788 13.5877ZM195.796 16.6928L197.434 15.3908L196.19 13.8252L194.552 15.1272L195.796 16.6928ZM197.582 13.9694C197.014 13.2859 196.167 12.3531 195.349 11.5349L193.935 12.9491C194.713 13.7269 195.518 14.6141 196.042 15.2466L197.582 13.9694ZM195.271 13.0196C197.349 11.3393 199.212 9.00722 200.268 7.2921L198.564 6.2439C197.604 7.80478 195.883 9.95268 194.013 11.4644L195.271 13.0196ZM200.268 7.2921C200.323 7.20184 200.412 7.10477 200.645 6.8385L199.139 5.5215C198.98 5.70323 198.733 5.97016 198.564 6.2439L200.268 7.2921ZM212.702 4.71L213.573 5.20206L214.161 4.16019L213.031 3.76585L212.702 4.71ZM210.616 3.982L210.945 3.03784L209.81 2.64171L209.628 3.82994L210.616 3.982ZM210.28 5.27L209.335 4.94289L209.333 4.95012L209.33 4.95738L210.28 5.27ZM208.726 8.602L208.131 9.40556L208.993 10.044L209.569 9.13956L208.726 8.602ZM205.002 6.068L205.524 5.21525L204.787 4.76375L204.234 5.42782L205.002 6.068ZM203.812 7.496L203.044 6.85582L202.301 7.74758L203.293 8.35052L203.812 7.496ZM207.592 10.156L208.361 10.7955L209.016 10.0079L208.213 9.37195L207.592 10.156ZM202.272 14.286L201.836 13.3861L200.499 14.0339L201.602 15.0286L202.272 14.286ZM203.84 15.7L203.17 16.4426L203.696 16.9169L204.318 16.5783L203.84 15.7ZM209.048 11.374L209.701 10.6168L208.929 9.95121L208.279 10.7352L209.048 11.374ZM212.156 14.468L211.395 15.1173L212.135 15.9832L212.898 15.1384L212.156 14.468ZM213.598 12.872L214.34 13.5424L214.959 12.857L214.325 12.1854L213.598 12.872ZM210.238 9.778L209.396 9.23817L208.915 9.98793L209.605 10.552L210.238 9.778ZM212.114 5.97L211.197 5.57127L211.188 5.59292L211.179 5.61499L212.114 5.97ZM213.031 3.76585L210.945 3.03784L210.286 4.92615L212.372 5.65415L213.031 3.76585ZM209.628 3.82994C209.584 4.11484 209.449 4.61343 209.335 4.94289L211.225 5.59711C211.363 5.19857 211.536 4.57716 211.604 4.13405L209.628 3.82994ZM209.33 4.95738C208.986 6.00275 208.543 7.0294 207.883 8.06444L209.569 9.13956C210.337 7.9346 210.846 6.74925 211.23 5.58262L209.33 4.95738ZM209.321 7.79844C208.169 6.94513 206.675 5.91982 205.524 5.21525L204.48 6.92075C205.569 7.58818 207.015 8.57887 208.131 9.40556L209.321 7.79844ZM204.234 5.42782L203.044 6.85582L204.58 8.13618L205.77 6.70818L204.234 5.42782ZM203.293 8.35052C204.673 9.18986 205.982 10.1571 206.971 10.94L208.213 9.37195C207.186 8.55889 205.807 7.53814 204.331 6.64148L203.293 8.35052ZM206.823 9.51645C205.526 11.0759 203.986 12.3439 201.836 13.3861L202.708 15.1859C205.122 14.0161 206.886 12.5681 208.361 10.7955L206.823 9.51645ZM201.602 15.0286L203.17 16.4426L204.51 14.9574L202.942 13.5434L201.602 15.0286ZM204.318 16.5783C206.822 15.2154 208.526 13.5684 209.817 12.0128L208.279 10.7352C207.106 12.1476 205.59 13.6086 203.362 14.8217L204.318 16.5783ZM208.395 12.1312C209.485 13.0711 210.455 14.0153 211.395 15.1173L212.917 13.8187C211.897 12.6247 210.851 11.6089 209.701 10.6168L208.395 12.1312ZM212.898 15.1384L214.34 13.5424L212.856 12.2016L211.414 13.7976L212.898 15.1384ZM214.325 12.1854C213.338 11.1405 212.13 10.0336 210.871 9.00404L209.605 10.552C210.81 11.5384 211.954 12.5875 212.871 13.5586L214.325 12.1854ZM211.08 10.3178C211.956 8.95199 212.614 7.46947 213.049 6.32501L211.179 5.61499C210.774 6.68253 210.172 8.02801 209.396 9.23817L211.08 10.3178ZM213.031 6.36873C213.182 6.02121 213.423 5.4667 213.573 5.20206L211.831 4.21794C211.617 4.5973 211.326 5.27479 211.197 5.57127L213.031 6.36873ZM222.376 10.24V11.24H223.376V10.24H222.376ZM222.376 8.672H223.376V7.672H222.376V8.672ZM220.08 8.672H219.08V9.672H220.08V8.672ZM220.08 6.446V5.446H219.08V6.446H220.08ZM222.054 6.446V7.446H223.054V6.446H222.054ZM222.054 4.906H223.054V3.906H222.054V4.906ZM218.358 4.906L217.399 4.62383L217.022 5.906H218.358V4.906ZM218.708 3.464L219.689 3.66012L219.884 2.68119L218.906 2.48375L218.708 3.464ZM217.112 3.142L217.31 2.16175L216.304 1.95889L216.127 2.9692L217.112 3.142ZM215.544 7.356L214.744 6.756L214.056 7.6733L215.058 8.23016L215.544 7.356ZM216.888 8.322L216.215 9.06194L217.07 9.83887L217.717 8.88186L216.888 8.322ZM217.84 6.446V5.446H217.158L216.909 6.08091L217.84 6.446ZM218.4 6.446H219.4V5.446H218.4V6.446ZM218.4 8.672V9.672H219.4V8.672H218.4ZM215.81 8.672V7.672H214.81V8.672H215.81ZM215.81 10.24H214.81V11.24H215.81V10.24ZM218.288 10.24L219.279 10.3766L219.435 9.24H218.288V10.24ZM215.6 14.916L215.018 14.1027L213.885 14.9134L215.016 15.7275L215.6 14.916ZM216.79 16.176L215.948 16.7151L216.521 17.6101L217.379 16.984L216.79 16.176ZM219.436 12.508L220.216 11.8817L219.084 10.4726L218.491 12.1802L219.436 12.508ZM221.382 15.14L220.538 15.6758L221.288 16.8582L222.163 15.7647L221.382 15.14ZM222.502 13.74L223.283 14.3647L223.798 13.7213L223.265 13.093L222.502 13.74ZM219.87 10.814L218.896 10.5891L218.77 11.1354L219.17 11.5279L219.87 10.814ZM219.968 10.24V9.24H219.101L218.978 10.0986L219.968 10.24ZM224.364 13.236H223.364V14.236H224.364V13.236ZM224.364 5.914V4.914H223.364V5.914H224.364ZM226.394 5.914H227.394V4.914H226.394V5.914ZM226.394 13.236V14.236H227.394V13.236H226.394ZM222.754 4.346V3.346H221.754V4.346H222.754ZM222.754 15.812H221.754V16.812H222.754V15.812ZM224.364 15.812V16.812H225.364V15.812H224.364ZM224.364 14.804V13.804H223.364V14.804H224.364ZM226.394 14.804H227.394V13.804H226.394V14.804ZM226.394 15.602H225.394V16.602H226.394V15.602ZM228.088 15.602V16.602H229.088V15.602H228.088ZM228.088 4.346H229.088V3.346H228.088V4.346ZM223.376 10.24V8.672H221.376V10.24H223.376ZM222.376 7.672H220.08V9.672H222.376V7.672ZM221.08 8.672V8.336H219.08V8.672H221.08ZM221.08 8.336V6.446H219.08V8.336H221.08ZM220.08 7.446H222.054V5.446H220.08V7.446ZM223.054 6.446V4.906H221.054V6.446H223.054ZM222.054 3.906H218.358V5.906H222.054V3.906ZM219.317 5.18817C219.468 4.67737 219.586 4.17167 219.689 3.66012L217.727 3.26788C217.634 3.73633 217.528 4.18263 217.399 4.62383L219.317 5.18817ZM218.906 2.48375L217.31 2.16175L216.914 4.12225L218.51 4.44425L218.906 2.48375ZM216.127 2.9692C215.857 4.50563 215.361 5.93344 214.744 6.756L216.344 7.956C217.239 6.76256 217.807 4.97037 218.097 3.3148L216.127 2.9692ZM215.058 8.23016C215.367 8.40163 215.963 8.83214 216.215 9.06194L217.561 7.58206C217.197 7.25186 216.477 6.73036 216.03 6.48184L215.058 8.23016ZM217.717 8.88186C218.119 8.28651 218.472 7.57231 218.771 6.81109L216.909 6.08091C216.648 6.74769 216.357 7.32149 216.059 7.76214L217.717 8.88186ZM217.84 7.446H218.4V5.446H217.84V7.446ZM217.4 6.446V8.322H219.4V6.446H217.4ZM217.4 8.322V8.672H219.4V8.322H217.4ZM218.4 7.672H215.81V9.672H218.4V7.672ZM214.81 8.672V10.24H216.81V8.672H214.81ZM215.81 11.24H218.288V9.24H215.81V11.24ZM217.297 10.1034C217.097 11.5558 216.544 13.0113 215.018 14.1027L216.182 15.7293C218.296 14.2167 219.031 12.1722 219.279 10.3766L217.297 10.1034ZM215.016 15.7275C215.112 15.7971 215.302 15.9693 215.514 16.1948C215.726 16.4199 215.886 16.6186 215.948 16.7151L217.632 15.6369C217.47 15.3834 217.21 15.0781 216.97 14.8237C216.731 14.5697 216.438 14.2869 216.184 14.1045L215.016 15.7275ZM217.379 16.984C218.919 15.8612 219.852 14.3605 220.381 12.8358L218.491 12.1802C218.068 13.3995 217.349 14.5308 216.201 15.368L217.379 16.984ZM218.656 13.1343C219.338 13.983 220.107 14.9972 220.538 15.6758L222.226 14.6042C221.733 13.8268 220.906 12.741 220.216 11.8817L218.656 13.1343ZM222.163 15.7647L223.283 14.3647L221.721 13.1153L220.601 14.5153L222.163 15.7647ZM223.265 13.093C222.879 12.6389 221.337 10.8521 220.57 10.1001L219.17 11.5279C219.859 12.2039 221.341 13.9171 221.739 14.387L223.265 13.093ZM220.844 11.0389C220.898 10.808 220.931 10.5686 220.958 10.3814L218.978 10.0986C218.949 10.3034 218.926 10.456 218.896 10.5891L220.844 11.0389ZM219.968 11.24H222.376V9.24H219.968V11.24ZM225.364 13.236V5.914H223.364V13.236H225.364ZM224.364 6.914H226.394V4.914H224.364V6.914ZM225.394 5.914V13.236H227.394V5.914H225.394ZM226.394 12.236H224.364V14.236H226.394V12.236ZM221.754 4.346V15.812H223.754V4.346H221.754ZM222.754 16.812H224.364V14.812H222.754V16.812ZM225.364 15.812V14.804H223.364V15.812H225.364ZM224.364 15.804H226.394V13.804H224.364V15.804ZM225.394 14.804V15.602H227.394V14.804H225.394ZM226.394 16.602H228.088V14.602H226.394V16.602ZM229.088 15.602V4.346H227.088V15.602H229.088ZM228.088 3.346H222.754V5.346H228.088V3.346ZM234.108 3.576H235.108V2.576H234.108V3.576ZM230.678 3.576V2.576H229.678V3.576H230.678ZM230.678 4.836H229.678V5.836H230.678V4.836ZM234.108 4.836V5.836H235.108V4.836H234.108ZM234.458 5.452H235.458V4.452H234.458V5.452ZM230.062 5.452V4.452H229.062V5.452H230.062ZM230.062 6.768H229.062V7.768H230.062V6.768ZM234.458 6.768V7.768H235.458V6.768H234.458ZM234.122 7.398H235.122V6.398H234.122V7.398ZM230.608 7.398V6.398H229.608V7.398H230.608ZM230.608 8.672H229.608V9.672H230.608V8.672ZM234.122 8.672V9.672H235.122V8.672H234.122ZM230.608 10.562H229.608V11.562H230.608V10.562ZM234.122 10.562V11.562H235.122V10.562H234.122ZM234.122 9.316H235.122V8.316H234.122V9.316ZM230.608 9.316V8.316H229.608V9.316H230.608ZM232.862 12.55H233.862V11.55H232.862V12.55ZM232.862 14.16V15.16H233.862V14.16H232.862ZM231.826 14.16H230.826V15.16H231.826V14.16ZM231.826 12.55V11.55H230.826V12.55H231.826ZM234.164 11.248H235.164V10.248H234.164V11.248ZM230.566 11.248V10.248H229.566V11.248H230.566ZM230.566 16.022H229.566V17.022H230.566V16.022ZM231.826 16.022V17.022H232.826V16.022H231.826ZM231.826 15.462V14.462H230.826V15.462H231.826ZM234.164 15.462V16.462H235.164V15.462H234.164ZM236.138 13.516H235.138V14.516H236.138V13.516ZM236.138 12.774V11.774H235.138V12.774H236.138ZM237.51 12.774H238.51V11.774H237.51V12.774ZM237.51 13.516V14.516H238.51V13.516H237.51ZM237.51 10.954H238.51V9.954H237.51V10.954ZM237.51 11.654V12.654H238.51V11.654H237.51ZM236.138 11.654H235.138V12.654H236.138V11.654ZM236.138 10.954V9.954H235.138V10.954H236.138ZM241.64 9.764L242.126 8.89031L241.065 8.29936L240.689 9.45441L241.64 9.764ZM240.94 11.458L239.943 11.541L240.24 15.0949L241.834 11.9052L240.94 11.458ZM240.8 9.176V8.176H239.767L239.801 9.20877L240.8 9.176ZM243.054 9.176V10.176H244.054V9.176H243.054ZM243.054 7.846H244.054V6.846H243.054V7.846ZM240.772 7.846L239.772 7.87377L239.799 8.846H240.772V7.846ZM240.758 4.57L241.595 4.02234L239.797 1.27607L239.758 4.5581L240.758 4.57ZM241.85 7.048L240.873 7.26286L241.129 8.42497L242.23 7.97308L241.85 7.048ZM243.18 6.502L243.56 7.42708L244.383 7.08918L244.143 6.23237L243.18 6.502ZM241.934 3.996L242.738 3.40077L242.286 2.79166L241.578 3.06151L241.934 3.996ZM240.758 4.444L239.758 4.43313L239.742 5.90111L241.114 5.37849L240.758 4.444ZM240.772 3.156L241.772 3.16687L241.783 2.156H240.772V3.156ZM239.358 3.156V2.156H238.358V3.156H239.358ZM239.4 7.846V8.846H240.42L240.4 7.826L239.4 7.846ZM238.322 7.846L237.358 7.57836L237.006 8.846H238.322V7.846ZM238.812 5.97L239.777 6.23141L240.069 5.15353L238.966 4.98188L238.812 5.97ZM237.552 5.774V4.774L237.398 6.76212L237.552 5.774ZM239.106 5.774V6.774H240.106V5.774H239.106ZM239.106 4.528H240.106V3.528H239.106V4.528ZM237.65 4.528H236.65V5.528H237.65V4.528ZM237.65 3.156H238.65V2.156H237.65V3.156ZM236.124 3.156V2.156H235.124V3.156H236.124ZM236.124 4.528V5.528H237.124V4.528H236.124ZM234.64 4.528V3.528H233.64V4.528H234.64ZM234.64 5.774H233.64V6.774H234.64V5.774ZM237.468 5.774L238.463 5.8735L238.573 4.774H237.468V5.774ZM237.174 7.692L236.194 7.49106L235.995 8.46466L236.967 8.67035L237.174 7.692ZM237.902 7.846V8.846L238.109 6.86765L237.902 7.846ZM235.634 7.846L235.402 6.87335L235.634 8.846V7.846ZM236.572 7.622L236.804 8.59465L237.595 8.40587L237.572 7.59344L236.572 7.622ZM236.166 5.816L237.094 5.44461L236.781 4.66078L235.956 4.83838L236.166 5.816ZM235.06 6.054L234.85 5.07638L233.767 5.30945L234.109 6.36309L235.06 6.054ZM235.396 7.846V8.846H236.453L236.394 7.79053L235.396 7.846ZM234.346 7.846V6.846H233.346V7.846H234.346ZM234.346 9.176H233.346V10.176H234.346V9.176ZM239.442 9.176L240.441 9.13218L240.399 8.176H239.442V9.176ZM239.82 13.194L240.595 13.8257L240.886 13.4685L240.804 13.0151L239.82 13.194ZM238.854 14.23H237.854V16.5734L239.546 14.952L238.854 14.23ZM238.854 9.806H239.854V8.806H238.854V9.806ZM234.892 9.806V8.806H233.892V9.806H234.892ZM234.892 15.196H233.892V16.196H234.892V15.196ZM236.138 15.196V16.196H237.138V15.196H236.138ZM236.138 14.664V13.664H235.138V14.664H236.138ZM238.35 14.664L238.979 15.4412L241.175 13.664H238.35V14.664ZM237.44 15.294L236.931 14.4331L235.661 15.1834L236.829 16.0853L237.44 15.294ZM238.378 16.218L237.559 16.7915L238.111 17.5799L238.92 17.0586L238.378 16.218ZM240.212 14.72L241.146 14.3629L240.588 12.9033L239.496 14.0215L240.212 14.72ZM241.85 16.246L241.775 17.2432L241.786 17.244L241.797 17.2446L241.85 16.246ZM243.334 13.796L244.319 13.9694L244.434 13.3165L243.877 12.9564L243.334 13.796ZM242.312 12.858L243.128 12.28L241.475 9.94559L241.314 12.8018L242.312 12.858ZM241.934 14.454L241.835 15.449L241.846 15.4502L241.857 15.4511L241.934 14.454ZM241.262 13.474L240.45 12.8904L240.17 13.2803L240.299 13.7428L241.262 13.474ZM242.872 10.45L243.812 10.7908L244.102 9.99046L243.358 9.57631L242.872 10.45ZM234.108 2.576H230.678V4.576H234.108V2.576ZM229.678 3.576V4.836H231.678V3.576H229.678ZM230.678 5.836H234.108V3.836H230.678V5.836ZM235.108 4.836V3.576H233.108V4.836H235.108ZM234.458 4.452H230.062V6.452H234.458V4.452ZM229.062 5.452V6.768H231.062V5.452H229.062ZM230.062 7.768H234.458V5.768H230.062V7.768ZM235.458 6.768V5.452H233.458V6.768H235.458ZM234.122 6.398H230.608V8.398H234.122V6.398ZM229.608 7.398V8.672H231.608V7.398H229.608ZM230.608 9.672H234.122V7.672H230.608V9.672ZM235.122 8.672V7.398H233.122V8.672H235.122ZM230.608 11.562H234.122V9.562H230.608V11.562ZM235.122 10.562V9.316H233.122V10.562H235.122ZM234.122 8.316H230.608V10.316H234.122V8.316ZM229.608 9.316V10.562H231.608V9.316H229.608ZM231.862 12.55V14.16H233.862V12.55H231.862ZM232.862 13.16H231.826V15.16H232.862V13.16ZM232.826 14.16V12.55H230.826V14.16H232.826ZM231.826 13.55H232.862V11.55H231.826V13.55ZM234.164 10.248H230.566V12.248H234.164V10.248ZM229.566 11.248V16.022H231.566V11.248H229.566ZM230.566 17.022H231.826V15.022H230.566V17.022ZM232.826 16.022V15.462H230.826V16.022H232.826ZM231.826 16.462H234.164V14.462H231.826V16.462ZM235.164 15.462V11.248H233.164V15.462H235.164ZM237.138 13.516V12.774H235.138V13.516H237.138ZM236.138 13.774H237.51V11.774H236.138V13.774ZM236.51 12.774V13.516H238.51V12.774H236.51ZM237.51 12.516H236.138V14.516H237.51V12.516ZM236.51 10.954V11.654H238.51V10.954H236.51ZM237.51 10.654H236.138V12.654H237.51V10.654ZM237.138 11.654V10.954H235.138V11.654H237.138ZM236.138 11.954H237.51V9.954H236.138V11.954ZM240.689 9.45441C240.511 10.0029 240.293 10.5168 240.046 11.0108L241.834 11.9052C242.119 11.3352 242.377 10.7291 242.591 10.0736L240.689 9.45441ZM241.937 11.375C241.881 10.71 241.827 9.97293 241.799 9.14323L239.801 9.20877C239.829 10.0871 239.887 10.862 239.943 11.541L241.937 11.375ZM240.8 10.176H243.054V8.176H240.8V10.176ZM244.054 9.176V7.846H242.054V9.176H244.054ZM243.054 6.846H240.772V8.846H243.054V6.846ZM241.772 7.81823C241.744 6.82901 241.744 5.75174 241.758 4.5819L239.758 4.5581C239.744 5.74026 239.744 6.84699 239.772 7.87377L241.772 7.81823ZM239.921 5.11766C240.37 5.80331 240.75 6.69988 240.873 7.26286L242.827 6.83314C242.643 5.99612 242.154 4.87669 241.595 4.02234L239.921 5.11766ZM242.23 7.97308L243.56 7.42708L242.8 5.57692L241.47 6.12292L242.23 7.97308ZM244.143 6.23237C243.915 5.4165 243.371 4.25591 242.738 3.40077L241.13 4.59123C241.617 5.24809 242.053 6.18749 242.217 6.77163L244.143 6.23237ZM241.578 3.06151L240.402 3.50951L241.114 5.37849L242.29 4.93049L241.578 3.06151ZM241.758 4.45487L241.772 3.16687L239.772 3.14513L239.758 4.43313L241.758 4.45487ZM240.772 2.156H239.358V4.156H240.772V2.156ZM238.358 3.156C238.358 4.88319 238.372 6.458 238.4 7.866L240.4 7.826C240.372 6.434 240.358 4.87281 240.358 3.156H238.358ZM239.4 6.846H238.322V8.846H239.4V6.846ZM239.286 8.11364C239.415 7.64675 239.618 6.82087 239.777 6.23141L237.847 5.70858C237.642 6.46313 237.509 7.03725 237.358 7.57836L239.286 8.11364ZM238.966 4.98188L237.706 4.78588L237.398 6.76212L238.658 6.95812L238.966 4.98188ZM237.552 6.774H239.106V4.774H237.552V6.774ZM240.106 5.774V4.528H238.106V5.774H240.106ZM239.106 3.528H237.65V5.528H239.106V3.528ZM238.65 4.528V3.156H236.65V4.528H238.65ZM237.65 2.156H236.124V4.156H237.65V2.156ZM235.124 3.156V4.528H237.124V3.156H235.124ZM236.124 3.528H234.64V5.528H236.124V3.528ZM233.64 4.528V5.774H235.64V4.528H233.64ZM234.64 6.774H237.468V4.774H234.64V6.774ZM236.473 5.6745C236.421 6.19828 236.3 6.97638 236.194 7.49106L238.154 7.89294C238.272 7.31561 238.403 6.46972 238.463 5.8735L236.473 5.6745ZM236.967 8.67035L237.695 8.82435L238.109 6.86765L237.381 6.71365L236.967 8.67035ZM237.902 6.846H235.634V8.846H237.902V6.846ZM235.866 8.81865L236.804 8.59465L236.34 6.64935L235.402 6.87335L235.866 8.81865ZM237.572 7.59344C237.554 6.96535 237.354 6.09297 237.094 5.44461L235.238 6.18739C235.426 6.65903 235.562 7.29865 235.572 7.65056L237.572 7.59344ZM235.956 4.83838L234.85 5.07638L235.27 7.03162L236.376 6.79362L235.956 4.83838ZM234.109 6.36309C234.263 6.83648 234.374 7.47888 234.398 7.90147L236.394 7.79053C236.362 7.20512 236.221 6.39152 236.011 5.74491L234.109 6.36309ZM235.396 6.846H234.346V8.846H235.396V6.846ZM233.346 7.846V9.176H235.346V7.846H233.346ZM234.346 10.176H239.442V8.176H234.346V10.176ZM238.443 9.21982C238.514 10.8293 238.628 12.2272 238.836 13.3729L240.804 13.0151C240.62 12.0048 240.51 10.7147 240.441 9.13218L238.443 9.21982ZM239.045 12.5623C238.769 12.9002 238.477 13.2058 238.162 13.508L239.546 14.952C239.903 14.6102 240.255 14.2438 240.595 13.8257L239.045 12.5623ZM239.854 14.23V9.806H237.854V14.23H239.854ZM238.854 8.806H234.892V10.806H238.854V8.806ZM233.892 9.806V15.196H235.892V9.806H233.892ZM234.892 16.196H236.138V14.196H234.892V16.196ZM237.138 15.196V14.664H235.138V15.196H237.138ZM236.138 15.664H238.35V13.664H236.138V15.664ZM237.721 13.8868C237.468 14.0912 237.201 14.2736 236.931 14.4331L237.949 16.1549C238.295 15.9504 238.644 15.7128 238.979 15.4412L237.721 13.8868ZM236.829 16.0853C237.104 16.298 237.447 16.6318 237.559 16.7915L239.197 15.6445C238.917 15.2442 238.392 14.766 238.051 14.5027L236.829 16.0853ZM238.92 17.0586C239.61 16.6138 240.299 16.0628 240.928 15.4185L239.496 14.0215C238.977 14.5532 238.406 15.0102 237.836 15.3774L238.92 17.0586ZM239.278 15.0771C239.71 16.2061 240.482 17.1456 241.775 17.2432L241.925 15.2488C241.734 15.2344 241.442 15.1379 241.146 14.3629L239.278 15.0771ZM241.797 17.2446C242.465 17.2797 243.053 16.9509 243.476 16.3557C243.863 15.8106 244.134 15.0205 244.319 13.9694L242.349 13.6226C242.184 14.5595 241.979 15.0084 241.845 15.1983C241.746 15.3381 241.767 15.2403 241.903 15.2474L241.797 17.2446ZM243.877 12.9564C243.814 12.9152 243.658 12.7989 243.485 12.646C243.306 12.4873 243.179 12.3522 243.128 12.28L241.496 13.436C241.683 13.6998 241.948 13.9567 242.161 14.1445C242.38 14.3381 242.616 14.5228 242.791 14.6356L243.877 12.9564ZM241.314 12.8018C241.287 13.2755 241.242 13.6118 241.197 13.806C241.172 13.9127 241.16 13.9139 241.188 13.8649C241.201 13.8405 241.254 13.7484 241.368 13.6558C241.496 13.5512 241.72 13.4346 242.011 13.4569L241.857 15.4511C242.548 15.5042 242.875 14.946 242.936 14.8357C243.043 14.6441 243.104 14.4318 243.144 14.262C243.228 13.9032 243.281 13.4345 243.31 12.9142L241.314 12.8018ZM242.034 13.459C242.165 13.4721 242.265 13.5226 242.326 13.567C242.38 13.6069 242.396 13.6363 242.385 13.6205C242.376 13.6061 242.353 13.5673 242.322 13.4934C242.292 13.4208 242.259 13.3258 242.225 13.2052L240.299 13.7428C240.396 14.0907 240.529 14.4448 240.727 14.738C240.92 15.0256 241.275 15.3931 241.835 15.449L242.034 13.459ZM242.074 14.0576C242.765 13.0963 243.371 12.0074 243.812 10.7908L241.932 10.1092C241.561 11.1326 241.047 12.0597 240.45 12.8904L242.074 14.0576ZM243.358 9.57631L242.126 8.89031L241.154 10.6377L242.386 11.3237L243.358 9.57631ZM250.32 10.282L251.056 9.60537L251.05 9.59819L251.043 9.59114L250.32 10.282ZM257.432 9.246L258.312 9.72137L258.785 8.84506L257.911 8.3681L257.432 9.246ZM255.892 8.406L256.371 7.5281L255.486 7.04544L255.01 7.93412L255.892 8.406ZM251.58 9.078L250.844 9.75465L250.849 9.76088L251.58 9.078ZM244.468 10.114L243.588 9.63863L243.115 10.5149L243.989 10.9919L244.468 10.114ZM246.008 10.954L245.529 11.8319L246.414 12.3146L246.89 11.4259L246.008 10.954ZM249.584 10.9586C250.697 12.1702 251.975 12.822 253.624 12.822V10.822C252.613 10.822 251.847 10.4658 251.056 9.60537L249.584 10.9586ZM253.624 12.822C255.557 12.822 257.234 11.7164 258.312 9.72137L256.552 8.77063C255.754 10.2476 254.687 10.822 253.624 10.822V12.822ZM257.911 8.3681L256.371 7.5281L255.413 9.2839L256.953 10.1239L257.911 8.3681ZM255.01 7.93412C254.552 8.79041 254.021 9.086 253.666 9.086V11.086C255.103 11.086 256.168 10.0096 256.774 8.87788L255.01 7.93412ZM253.666 9.086C253.319 9.086 253.113 9.02329 252.953 8.93879C252.774 8.84485 252.585 8.68851 252.311 8.39512L250.849 9.76088C251.177 10.1115 251.548 10.4592 252.02 10.7082C252.511 10.9667 253.047 11.086 253.666 11.086V9.086ZM252.316 8.40137C251.203 7.1898 249.925 6.538 248.276 6.538V8.538C249.287 8.538 250.053 8.8942 250.844 9.75463L252.316 8.40137ZM248.276 6.538C246.343 6.538 244.666 7.64361 243.588 9.63863L245.348 10.5894C246.146 9.11239 247.213 8.538 248.276 8.538V6.538ZM243.989 10.9919L245.529 11.8319L246.487 10.0761L244.947 9.2361L243.989 10.9919ZM246.89 11.4259C247.348 10.5696 247.879 10.274 248.234 10.274V8.274C246.797 8.274 245.732 9.35041 245.126 10.4821L246.89 11.4259ZM248.234 10.274C248.583 10.274 248.788 10.3385 248.947 10.4234C249.127 10.5197 249.315 10.6774 249.597 10.9729L251.043 9.59114C250.723 9.25656 250.358 8.91025 249.891 8.66006C249.402 8.39854 248.865 8.274 248.234 8.274V10.274Z" fill="#FBBF24"/>
</g>
</svg>
