<svg width="206" height="36" viewBox="0 0 206 36" fill="none" xmlns="http://www.w3.org/2000/svg">
<g id="&#227;&#130;&#168;&#227;&#131;&#179;&#227;&#130;&#184;&#227;&#131;&#147;&#227;&#130;&#162;&#227;&#129;&#174;&#230;&#179;&#137;">
<path d="M4.17 8.06V12.17C4.92 12.11 6.21 12.05 7.02 12.05H12.81V24.29H5.19C4.26 24.29 3.18 24.2 2.25 24.05V28.4C3.24 28.28 4.29 28.25 5.19 28.25H24.96C25.65 28.25 26.91 28.28 27.78 28.4V24.05C27 24.17 26.04 24.29 24.96 24.29H17.01V12.05H23.34C24.21 12.05 25.26 12.11 26.16 12.17V8.06C25.29 8.15 24.24 8.24 23.34 8.24H7.02C6.18 8.24 4.95 8.15 4.17 8.06ZM36.48 6.2L33.66 9.2C35.85 10.73 39.6 14 41.16 15.68L44.22 12.56C42.48 10.73 38.58 7.61 36.48 6.2ZM32.73 26.18L35.25 30.14C39.48 29.42 43.35 27.74 46.38 25.91C51.21 23 55.2 18.86 57.48 14.81L55.14 10.58C53.25 14.63 49.35 19.22 44.22 22.25C41.31 23.99 37.41 25.52 32.73 26.18ZM80.4 5.96L77.88 7.01C78.96 8.54 79.65 9.83 80.52 11.72L83.13 10.61C82.44 9.23 81.24 7.22 80.4 5.96ZM84.51 4.52L81.96 5.57C83.07 7.07 83.82 8.24 84.78 10.13L87.33 8.99C86.61 7.67 85.44 5.72 84.51 4.52ZM67.35 5.39L65.19 8.69C67.17 9.8 70.29 11.81 71.97 12.98L74.19 9.68C72.63 8.57 69.33 6.47 67.35 5.39ZM61.8 26.69L64.05 30.62C66.69 30.14 71.01 28.64 74.07 26.93C78.96 24.08 83.22 20.3 85.98 16.13L83.67 12.05C81.3 16.34 77.1 20.45 72 23.3C68.76 25.1 65.16 26.12 61.8 26.69ZM62.73 12.23L60.57 15.53C62.58 16.61 65.7 18.62 67.41 19.82L69.6 16.46C68.07 15.38 64.77 13.31 62.73 12.23ZM109.89 4.7L107.52 5.66C108.33 6.83 109.26 8.6 109.86 9.83L112.29 8.81C111.72 7.7 110.64 5.81 109.89 4.7ZM113.43 3.35L111.06 4.31C111.9 5.45 112.86 7.19 113.49 8.45L115.86 7.43C115.35 6.38 114.24 4.46 113.43 3.35ZM96.96 5.99H92.52C92.67 6.89 92.76 8.45 92.76 9.11V25.46C92.76 28.04 94.26 29.48 96.87 29.96C98.16 30.17 99.96 30.29 101.91 30.29C105.21 30.29 109.77 30.08 112.59 29.66V25.28C110.13 25.94 105.27 26.33 102.15 26.33C100.8 26.33 99.57 26.27 98.67 26.15C97.32 25.88 96.72 25.55 96.72 24.26V18.71C100.62 17.75 105.45 16.25 108.48 15.05C109.47 14.69 110.82 14.12 111.99 13.64L110.37 9.83C109.2 10.55 108.18 11.03 107.1 11.45C104.43 12.59 100.26 13.91 96.72 14.78V9.11C96.72 8.27 96.81 6.89 96.96 5.99ZM145.65 8.69L143.28 6.47C142.71 6.65 141.06 6.74 140.22 6.74H124.05C122.79 6.74 121.53 6.62 120.39 6.44V10.61C121.8 10.49 122.79 10.4 124.05 10.4H139.68C138.9 11.87 136.56 14.51 134.16 15.98L137.28 18.47C140.22 16.37 143.07 12.59 144.48 10.25C144.75 9.8 145.32 9.08 145.65 8.69ZM133.41 12.74H129.06C129.21 13.7 129.27 14.51 129.27 15.44C129.27 20.36 128.55 23.54 124.74 26.18C123.63 26.99 122.55 27.5 121.59 27.83L125.1 30.68C133.26 26.3 133.41 20.18 133.41 12.74ZM174.06 18.44C174.06 11.9 169.38 6.74 161.94 6.74C154.17 6.74 148.17 12.65 148.17 19.58C148.17 24.65 150.93 28.31 154.26 28.31C157.53 28.31 160.11 24.59 161.91 18.53C162.78 15.71 163.29 12.95 163.71 10.4C167.76 11.09 170.01 14.18 170.01 18.32C170.01 22.7 167.01 25.46 163.17 26.36C162.36 26.54 161.52 26.72 160.38 26.84L162.63 30.41C170.19 29.24 174.06 24.77 174.06 18.44ZM152.01 19.19C152.01 15.89 154.68 11.51 159.63 10.49C159.3 12.98 158.73 15.53 158.04 17.75C156.81 21.8 155.64 23.69 154.38 23.69C153.21 23.69 152.01 22.22 152.01 19.19ZM185.64 18.98L185.04 19.13H177.42V22.25H183.21C181.65 24.74 179.16 26.75 176.31 27.8C177.03 28.52 177.93 29.9 178.35 30.74C182.82 28.79 186.3 25.19 187.89 19.88L185.64 18.98ZM192.21 17.54H199.8C198.39 18.86 196.41 20.42 194.58 21.62C193.62 20.51 192.84 19.31 192.21 18.02V17.54ZM183.6 13.07H197.4V14.84H183.6V13.07ZM183.6 8.84H197.4V10.52H183.6V8.84ZM200.43 17.54H201.12V6.14H191.37C191.82 5.48 192.3 4.73 192.75 3.98L188.49 3.38C188.22 4.19 187.8 5.21 187.32 6.14H180.06V17.54H188.64V27.89C188.64 28.31 188.52 28.4 187.98 28.4C187.53 28.43 185.76 28.43 184.26 28.37C184.74 29.3 185.25 30.65 185.4 31.61C187.68 31.61 189.39 31.58 190.62 31.07C191.88 30.56 192.21 29.72 192.21 27.98V23.69C194.73 26.99 198.12 29.39 202.47 30.68C202.98 29.72 204 28.25 204.78 27.47C201.63 26.75 198.96 25.46 196.77 23.72C198.81 22.58 201.15 21.02 203.1 19.55L200.43 17.54Z" fill="#0284C7"/>
<path d="M4.17 8.06L4.28462 7.06659L3.17 6.93798V8.06H4.17ZM4.17 12.17H3.17V13.2532L4.24974 13.1668L4.17 12.17ZM12.81 12.05H13.81V11.05H12.81V12.05ZM12.81 24.29V25.29H13.81V24.29H12.81ZM2.25 24.05L2.40923 23.0628L1.25 22.8758V24.05H2.25ZM2.25 28.4H1.25V29.5285L2.37033 29.3927L2.25 28.4ZM27.78 28.4L27.6434 29.3906L28.78 29.5474V28.4H27.78ZM27.78 24.05H28.78V22.8844L27.6279 23.0616L27.78 24.05ZM17.01 24.29H16.01V25.29H17.01V24.29ZM17.01 12.05V11.05H16.01V12.05H17.01ZM26.16 12.17L26.0935 13.1678L27.16 13.2389V12.17H26.16ZM26.16 8.06H27.16V6.95122L26.0571 7.06531L26.16 8.06ZM3.17 8.06V12.17H5.17V8.06H3.17ZM4.24974 13.1668C4.97813 13.1085 6.24112 13.05 7.02 13.05V11.05C6.17888 11.05 4.86187 11.1115 4.09026 11.1732L4.24974 13.1668ZM7.02 13.05H12.81V11.05H7.02V13.05ZM11.81 12.05V24.29H13.81V12.05H11.81ZM12.81 23.29H5.19V25.29H12.81V23.29ZM5.19 23.29C4.31591 23.29 3.28919 23.2047 2.40923 23.0628L2.09077 25.0372C3.07081 25.1953 4.20409 25.29 5.19 25.29V23.29ZM1.25 24.05V28.4H3.25V24.05H1.25ZM2.37033 29.3927C3.30276 29.2797 4.30731 29.25 5.19 29.25V27.25C4.27269 27.25 3.17724 27.2803 2.12967 27.4073L2.37033 29.3927ZM5.19 29.25H24.96V27.25H5.19V29.25ZM24.96 29.25C25.6428 29.25 26.8452 29.2805 27.6434 29.3906L27.9166 27.4094C26.9748 27.2795 25.6572 27.25 24.96 27.25V29.25ZM28.78 28.4V24.05H26.78V28.4H28.78ZM27.6279 23.0616C26.8706 23.1781 25.9672 23.29 24.96 23.29V25.29C26.1128 25.29 27.1294 25.1619 27.9321 25.0384L27.6279 23.0616ZM24.96 23.29H17.01V25.29H24.96V23.29ZM18.01 24.29V12.05H16.01V24.29H18.01ZM17.01 13.05H23.34V11.05H17.01V13.05ZM23.34 13.05C24.1737 13.05 25.1946 13.1079 26.0935 13.1678L26.2265 11.1722C25.3254 11.1121 24.2463 11.05 23.34 11.05V13.05ZM27.16 12.17V8.06H25.16V12.17H27.16ZM26.0571 7.06531C25.193 7.1547 24.1857 7.24 23.34 7.24V9.24C24.2943 9.24 25.387 9.1453 26.2629 9.05469L26.0571 7.06531ZM23.34 7.24H7.02V9.24H23.34V7.24ZM7.02 7.24C6.22898 7.24 5.0389 7.15362 4.28462 7.06659L4.05538 9.05341C4.8611 9.14638 6.13102 9.24 7.02 9.24V7.24ZM36.48 6.2L37.0374 5.36978L36.3327 4.89662L35.7514 5.51509L36.48 6.2ZM33.66 9.2L32.9314 8.51509L32.1394 9.35756L33.0873 10.0198L33.66 9.2ZM41.16 15.68L40.4272 16.3605L41.1402 17.1283L41.8739 16.3802L41.16 15.68ZM44.22 12.56L44.9339 13.2602L45.6101 12.5708L44.9447 11.8709L44.22 12.56ZM32.73 26.18L32.5904 25.1898L31.0526 25.4067L31.8863 26.7169L32.73 26.18ZM35.25 30.14L34.4063 30.6769L34.763 31.2373L35.4178 31.1258L35.25 30.14ZM46.38 25.91L45.8639 25.0534L45.863 25.054L46.38 25.91ZM57.48 14.81L58.3514 15.3006L58.6252 14.8143L58.355 14.3259L57.48 14.81ZM55.14 10.58L56.015 10.0959L55.0644 8.3774L54.2338 10.1571L55.14 10.58ZM44.22 22.25L43.7114 21.389L43.7068 21.3917L44.22 22.25ZM35.7514 5.51509L32.9314 8.51509L34.3886 9.88491L37.2086 6.88491L35.7514 5.51509ZM33.0873 10.0198C35.2214 11.5107 38.9173 14.7344 40.4272 16.3605L41.8928 14.9995C40.2827 13.2656 36.4786 9.9493 34.2327 8.38024L33.0873 10.0198ZM41.8739 16.3802L44.9339 13.2602L43.5061 11.8598L40.4461 14.9798L41.8739 16.3802ZM44.9447 11.8709C43.1394 9.97227 39.1772 6.80647 37.0374 5.36978L35.9226 7.03022C37.9828 8.41352 41.8206 11.4877 43.4953 13.2491L44.9447 11.8709ZM31.8863 26.7169L34.4063 30.6769L36.0937 29.6031L33.5737 25.6431L31.8863 26.7169ZM35.4178 31.1258C39.7959 30.3806 43.7834 28.6465 46.897 26.766L45.863 25.054C42.9166 26.8335 39.1641 28.4594 35.0822 29.1542L35.4178 31.1258ZM46.8961 26.7666C51.8624 23.7744 55.9801 19.5128 58.3514 15.3006L56.6086 14.3194C54.4199 18.2072 50.5576 22.2256 45.8639 25.0534L46.8961 26.7666ZM58.355 14.3259L56.015 10.0959L54.265 11.0641L56.605 15.2941L58.355 14.3259ZM54.2338 10.1571C52.4304 14.0216 48.6703 18.46 43.7114 21.389L44.7286 23.111C50.0297 19.98 54.0696 15.2384 56.0462 11.0029L54.2338 10.1571ZM43.7068 21.3917C40.9096 23.0643 37.1364 24.5487 32.5904 25.1898L32.8696 27.1702C37.6836 26.4913 41.7104 24.9157 44.7332 23.1083L43.7068 21.3917ZM80.4 5.96L81.232 5.4053L80.7754 4.72027L80.0154 5.03692L80.4 5.96ZM77.88 7.01L77.4954 6.08692L76.3432 6.56698L77.063 7.58668L77.88 7.01ZM80.52 11.72L79.6116 12.1381L80.0177 13.0203L80.9114 12.6402L80.52 11.72ZM83.13 10.61L83.5214 11.5302L84.5 11.114L84.0244 10.1628L83.13 10.61ZM84.51 4.52L85.3004 3.90743L84.8337 3.30524L84.1292 3.59532L84.51 4.52ZM81.96 5.57L81.5793 4.64532L80.3931 5.13372L81.1562 6.16484L81.96 5.57ZM84.78 10.13L83.8884 10.5829L84.3194 11.4313L85.1881 11.0429L84.78 10.13ZM87.33 8.99L87.7381 9.90292L88.7261 9.46123L88.2079 8.51115L87.33 8.99ZM67.35 5.39L67.8288 4.5121L67.0187 4.0702L66.5133 4.84234L67.35 5.39ZM65.19 8.69L64.3533 8.14234L63.7667 9.03851L64.701 9.56228L65.19 8.69ZM71.97 12.98L71.3985 13.8006L72.2325 14.3814L72.7997 13.5382L71.97 12.98ZM74.19 9.68L75.0197 10.2382L75.5634 9.42994L74.7698 8.86521L74.19 9.68ZM61.8 26.69L61.6327 25.7041L60.2204 25.9437L60.9322 27.1869L61.8 26.69ZM64.05 30.62L63.1822 31.1169L63.5334 31.7303L64.2289 31.6039L64.05 30.62ZM74.07 26.93L74.5578 27.8029L74.5657 27.7985L74.5735 27.794L74.07 26.93ZM85.98 16.13L86.8139 16.6819L87.1522 16.1707L86.8502 15.6373L85.98 16.13ZM83.67 12.05L84.5402 11.5573L83.6593 10.0014L82.7947 11.5664L83.67 12.05ZM72 23.3L72.4856 24.1742L72.4878 24.1729L72 23.3ZM62.73 12.23L63.1979 11.3462L62.3924 10.9198L61.8933 11.6823L62.73 12.23ZM60.57 15.53L59.7333 14.9823L59.1361 15.8947L60.0967 16.4109L60.57 15.53ZM67.41 19.82L66.8356 20.6386L67.6827 21.233L68.2478 20.366L67.41 19.82ZM69.6 16.46L70.4378 17.006L70.9639 16.1987L70.1767 15.643L69.6 16.46ZM80.0154 5.03692L77.4954 6.08692L78.2646 7.93308L80.7846 6.88308L80.0154 5.03692ZM77.063 7.58668C78.0963 9.05044 78.7572 10.282 79.6116 12.1381L81.4284 11.3019C80.5428 9.37799 79.8237 8.02956 78.697 6.43332L77.063 7.58668ZM80.9114 12.6402L83.5214 11.5302L82.7386 9.68976L80.1286 10.7998L80.9114 12.6402ZM84.0244 10.1628C83.3118 8.73751 82.0893 6.69124 81.232 5.4053L79.5679 6.5147C80.3907 7.74876 81.5682 9.72249 82.2356 11.0572L84.0244 10.1628ZM84.1292 3.59532L81.5793 4.64532L82.3408 6.49468L84.8908 5.44468L84.1292 3.59532ZM81.1562 6.16484C82.236 7.62407 82.9558 8.74683 83.8884 10.5829L85.6716 9.67713C84.6842 7.73317 83.904 6.51593 82.7638 4.97516L81.1562 6.16484ZM85.1881 11.0429L87.7381 9.90292L86.9219 8.07708L84.3719 9.21708L85.1881 11.0429ZM88.2079 8.51115C87.4794 7.17558 86.2794 5.17061 85.3004 3.90743L83.7196 5.13257C84.6006 6.26939 85.7406 8.16442 86.4521 9.46885L88.2079 8.51115ZM66.5133 4.84234L64.3533 8.14234L66.0267 9.23766L68.1867 5.93766L66.5133 4.84234ZM64.701 9.56228C66.645 10.6521 69.7368 12.6434 71.3985 13.8006L72.5415 12.1594C70.8432 10.9766 67.695 8.94789 65.679 7.81772L64.701 9.56228ZM72.7997 13.5382L75.0197 10.2382L73.3603 9.12182L71.1403 12.4218L72.7997 13.5382ZM74.7698 8.86521C73.1812 7.73492 69.8476 5.61324 67.8288 4.5121L66.8711 6.26789C68.8124 7.32675 72.0788 9.40508 73.6102 10.4948L74.7698 8.86521ZM60.9322 27.1869L63.1822 31.1169L64.9178 30.1231L62.6678 26.1931L60.9322 27.1869ZM64.2289 31.6039C66.9806 31.1036 71.4047 29.565 74.5578 27.8029L73.5822 26.0571C70.6153 27.715 66.3994 29.1764 63.8711 29.6361L64.2289 31.6039ZM74.5735 27.794C79.5674 24.8835 83.9525 21.0051 86.8139 16.6819L85.1461 15.5781C82.4875 19.5949 78.3526 23.2765 73.5665 26.066L74.5735 27.794ZM86.8502 15.6373L84.5402 11.5573L82.7998 12.5427L85.1098 16.6227L86.8502 15.6373ZM82.7947 11.5664C80.5271 15.671 76.4727 19.655 71.5122 22.4271L72.4878 24.1729C77.7273 21.245 82.0729 17.009 84.5453 12.5336L82.7947 11.5664ZM71.5144 22.4258C68.404 24.1538 64.9219 25.1461 61.6327 25.7041L61.9673 27.6759C65.3981 27.0939 69.116 26.0462 72.4856 24.1742L71.5144 22.4258ZM61.8933 11.6823L59.7333 14.9823L61.4067 16.0777L63.5667 12.7777L61.8933 11.6823ZM60.0967 16.4109C62.0595 17.4656 65.1442 19.4516 66.8356 20.6386L67.9844 19.0014C66.2558 17.7884 63.1005 15.7544 61.0433 14.6491L60.0967 16.4109ZM68.2478 20.366L70.4378 17.006L68.7622 15.914L66.5722 19.274L68.2478 20.366ZM70.1767 15.643C68.6162 14.5415 65.2799 12.4485 63.1979 11.3462L62.2621 13.1138C64.2601 14.1715 67.5238 16.2185 69.0233 17.277L70.1767 15.643ZM109.89 4.7L110.719 4.14014L110.265 3.4691L109.515 3.77315L109.89 4.7ZM107.52 5.66L107.145 4.73315L105.987 5.20214L106.698 6.22921L107.52 5.66ZM109.86 9.83L108.961 10.2684L109.376 11.1179L110.247 10.7521L109.86 9.83ZM112.29 8.81L112.677 9.73206L113.673 9.31402L113.18 8.35319L112.29 8.81ZM113.43 3.35L114.238 2.76053L113.778 2.13019L113.055 2.42315L113.43 3.35ZM111.06 4.31L110.685 3.38315L109.491 3.86657L110.255 4.9032L111.06 4.31ZM113.49 8.45L112.596 8.89721L113.018 9.74186L113.885 9.36854L113.49 8.45ZM115.86 7.43L116.255 8.34854L117.217 7.93471L116.76 6.99309L115.86 7.43ZM96.96 5.99L97.9464 6.1544L98.1405 4.99H96.96V5.99ZM92.52 5.99V4.99H91.3395L91.5336 6.1544L92.52 5.99ZM96.87 29.96L96.6891 30.9435L96.6992 30.9454L96.7093 30.947L96.87 29.96ZM112.59 29.66L112.737 30.6491L113.59 30.5221V29.66H112.59ZM112.59 25.28H113.59V23.9763L112.331 24.3142L112.59 25.28ZM98.67 26.15L98.4739 27.1306L98.5057 27.1369L98.5378 27.1412L98.67 26.15ZM96.72 18.71L96.481 17.739L95.72 17.9263V18.71H96.72ZM108.48 15.05L108.138 14.1102L108.125 14.115L108.112 14.1203L108.48 15.05ZM111.99 13.64L112.37 14.5652L113.307 14.1808L112.91 13.2487L111.99 13.64ZM110.37 9.83L111.29 9.4387L110.836 8.36932L109.846 8.97834L110.37 9.83ZM107.1 11.45L106.738 10.518L106.722 10.5239L106.707 10.5303L107.1 11.45ZM96.72 14.78H95.72V16.0555L96.9587 15.7511L96.72 14.78ZM109.515 3.77315L107.145 4.73315L107.895 6.58685L110.265 5.62685L109.515 3.77315ZM106.698 6.22921C107.462 7.33359 108.365 9.04656 108.961 10.2684L110.759 9.39157C110.155 8.15344 109.198 6.32641 108.342 5.09079L106.698 6.22921ZM110.247 10.7521L112.677 9.73206L111.903 7.88794L109.473 8.90794L110.247 10.7521ZM113.18 8.35319C112.597 7.21877 111.497 5.2922 110.719 4.14014L109.061 5.25986C109.783 6.3278 110.843 8.18122 111.4 9.2668L113.18 8.35319ZM113.055 2.42315L110.685 3.38315L111.435 5.23685L113.805 4.27685L113.055 2.42315ZM110.255 4.9032C111.043 5.97315 111.973 7.65196 112.596 8.89721L114.384 8.00278C113.747 6.72804 112.757 4.92685 111.865 3.7168L110.255 4.9032ZM113.885 9.36854L116.255 8.34854L115.465 6.51146L113.095 7.53146L113.885 9.36854ZM116.76 6.99309C116.229 5.9 115.089 3.92706 114.238 2.76053L112.622 3.93947C113.391 4.99294 114.471 6.86 114.96 7.8669L116.76 6.99309ZM96.96 4.99H92.52V6.99H96.96V4.99ZM91.5336 6.1544C91.6721 6.98518 91.76 8.48759 91.76 9.11H93.76C93.76 8.41241 93.6679 6.79482 93.5064 5.8256L91.5336 6.1544ZM91.76 9.11V25.46H93.76V9.11H91.76ZM91.76 25.46C91.76 26.9549 92.2008 28.2223 93.1092 29.1841C94.0023 30.1297 95.2522 30.6792 96.6891 30.9435L97.0509 28.9765C95.8778 28.7608 95.0727 28.3503 94.5633 27.8109C94.0692 27.2877 93.76 26.5451 93.76 25.46H91.76ZM96.7093 30.947C98.0704 31.1686 99.9281 31.29 101.91 31.29V29.29C99.9919 29.29 98.2496 29.1714 97.0307 28.973L96.7093 30.947ZM101.91 31.29C105.231 31.29 109.847 31.0796 112.737 30.6491L112.443 28.6709C109.693 29.0804 105.189 29.29 101.91 29.29V31.29ZM113.59 29.66V25.28H111.59V29.66H113.59ZM112.331 24.3142C109.997 24.9403 105.24 25.33 102.15 25.33V27.33C105.3 27.33 110.263 26.9397 112.849 26.2458L112.331 24.3142ZM102.15 25.33C100.821 25.33 99.6404 25.2705 98.8022 25.1588L98.5378 27.1412C99.4996 27.2695 100.779 27.33 102.15 27.33V25.33ZM98.8661 25.1694C98.1831 25.0328 97.9426 24.9179 97.8454 24.8333C97.8291 24.8191 97.72 24.7504 97.72 24.26H95.72C95.72 25.0596 95.9109 25.8009 96.5321 26.3417C97.0724 26.8121 97.8069 26.9972 98.4739 27.1306L98.8661 25.1694ZM97.72 24.26V18.71H95.72V24.26H97.72ZM96.959 19.681C100.892 18.7128 105.767 17.2 108.848 15.9797L108.112 14.1203C105.133 15.3 100.348 16.7872 96.481 17.739L96.959 19.681ZM108.822 15.9898C109.837 15.6206 111.219 15.0373 112.37 14.5652L111.61 12.7148C110.421 13.2027 109.103 13.7594 108.138 14.1102L108.822 15.9898ZM112.91 13.2487L111.29 9.4387L109.45 10.2213L111.07 14.0313L112.91 13.2487ZM109.846 8.97834C108.734 9.66264 107.769 10.1168 106.738 10.518L107.462 12.382C108.591 11.9432 109.666 11.4374 110.894 10.6817L109.846 8.97834ZM106.707 10.5303C104.102 11.6428 99.9868 12.9474 96.4813 13.8089L96.9587 15.7511C100.533 14.8726 104.758 13.5372 107.493 12.3697L106.707 10.5303ZM97.72 14.78V9.11H95.72V14.78H97.72ZM97.72 9.11C97.72 8.31183 97.8074 6.9884 97.9464 6.1544L95.9736 5.8256C95.8126 6.7916 95.72 8.22817 95.72 9.11H97.72ZM145.65 8.69L146.413 9.33594L147.028 8.61014L146.334 7.96017L145.65 8.69ZM143.28 6.47L143.964 5.74017L143.537 5.34026L142.979 5.51642L143.28 6.47ZM120.39 6.44L120.546 5.45224L119.39 5.26972V6.44H120.39ZM120.39 10.61H119.39V11.6987L120.475 11.6064L120.39 10.61ZM139.68 10.4L140.563 10.8687L141.343 9.4H139.68V10.4ZM134.16 15.98L133.638 15.1272L132.422 15.8721L133.536 16.7616L134.16 15.98ZM137.28 18.47L136.656 19.2516L137.247 19.7228L137.861 19.2837L137.28 18.47ZM144.48 10.25L145.337 10.7661L145.337 10.7645L144.48 10.25ZM133.41 12.74H134.41V11.74H133.41V12.74ZM129.06 12.74V11.74H127.892L128.072 12.8944L129.06 12.74ZM124.74 26.18L124.17 25.358L124.16 25.365L124.151 25.3722L124.74 26.18ZM121.59 27.83L121.265 26.8843L119.56 27.4702L120.96 28.6063L121.59 27.83ZM125.1 30.68L124.47 31.4563L124.986 31.8759L125.573 31.5611L125.1 30.68ZM146.334 7.96017L143.964 5.74017L142.596 7.19982L144.966 9.41982L146.334 7.96017ZM142.979 5.51642C142.821 5.56626 142.38 5.62916 141.775 5.67541C141.209 5.71865 140.612 5.74 140.22 5.74V7.74C140.668 7.74 141.316 7.71634 141.927 7.66959C142.5 7.62584 143.169 7.55374 143.581 7.42358L142.979 5.51642ZM140.22 5.74H124.05V7.74H140.22V5.74ZM124.05 5.74C122.851 5.74 121.644 5.62558 120.546 5.45224L120.234 7.42776C121.416 7.61441 122.729 7.74 124.05 7.74V5.74ZM119.39 6.44V10.61H121.39V6.44H119.39ZM120.475 11.6064C121.893 11.4857 122.84 11.4 124.05 11.4V9.4C122.74 9.4 121.707 9.49433 120.305 9.6136L120.475 11.6064ZM124.05 11.4H139.68V9.4H124.05V11.4ZM138.797 9.93128C138.466 10.5537 137.754 11.5059 136.805 12.4989C135.863 13.4841 134.744 14.4497 133.638 15.1272L134.682 16.8328C135.976 16.0403 137.227 14.9509 138.25 13.8811C139.266 12.8191 140.114 11.7163 140.563 10.8687L138.797 9.93128ZM133.536 16.7616L136.656 19.2516L137.904 17.6884L134.784 15.1984L133.536 16.7616ZM137.861 19.2837C140.96 17.07 143.895 13.1589 145.337 10.7661L143.623 9.73389C142.245 12.0211 139.48 15.67 136.699 17.6563L137.861 19.2837ZM145.337 10.7645C145.563 10.3892 146.087 9.72178 146.413 9.33594L144.887 8.04406C144.553 8.43822 143.937 9.2108 143.623 9.73551L145.337 10.7645ZM133.41 11.74H129.06V13.74H133.41V11.74ZM128.072 12.8944C128.214 13.8023 128.27 14.5607 128.27 15.44H130.27C130.27 14.4593 130.206 13.5976 130.048 12.5856L128.072 12.8944ZM128.27 15.44C128.27 17.8701 128.089 19.7465 127.498 21.3121C126.922 22.8405 125.929 24.1396 124.17 25.358L125.31 27.002C127.361 25.5804 128.633 23.9695 129.369 22.0179C130.091 20.1035 130.27 17.9299 130.27 15.44H128.27ZM124.151 25.3722C123.13 26.1166 122.142 26.5829 121.265 26.8843L121.915 28.7757C122.958 28.4171 124.13 27.8634 125.329 26.9878L124.151 25.3722ZM120.96 28.6063L124.47 31.4563L125.73 29.9037L122.22 27.0537L120.96 28.6063ZM125.573 31.5611C129.849 29.2661 132.109 26.4569 133.258 23.1892C134.382 19.9935 134.41 16.4287 134.41 12.74H132.41C132.41 16.4913 132.363 19.7065 131.372 22.5258C130.406 25.2731 128.511 27.7139 124.627 29.7989L125.573 31.5611ZM161.91 18.53L160.954 18.2352L160.951 18.2453L161.91 18.53ZM163.71 10.4L163.878 9.4142L162.887 9.24533L162.723 10.2375L163.71 10.4ZM163.17 26.36L163.387 27.3363L163.398 27.3336L163.17 26.36ZM160.38 26.84L160.275 25.8455L158.677 26.0137L159.534 27.3732L160.38 26.84ZM162.63 30.41L161.784 30.9432L162.134 31.4987L162.783 31.3982L162.63 30.41ZM159.63 10.49L160.621 10.6214L160.806 9.22662L159.428 9.51058L159.63 10.49ZM158.04 17.75L157.085 17.4532L157.083 17.4594L158.04 17.75ZM175.06 18.44C175.06 14.9278 173.8 11.7419 171.498 9.43165C169.193 7.11806 165.9 5.74 161.94 5.74V7.74C165.42 7.74 168.187 8.94194 170.082 10.8433C171.98 12.7481 173.06 15.4122 173.06 18.44H175.06ZM161.94 5.74C153.668 5.74 147.17 12.0485 147.17 19.58H149.17C149.17 13.2515 154.672 7.74 161.94 7.74V5.74ZM147.17 19.58C147.17 22.2887 147.906 24.6829 149.153 26.4275C150.4 28.1738 152.199 29.31 154.26 29.31V27.31C152.991 27.31 151.745 26.6162 150.78 25.265C149.814 23.9121 149.17 21.9413 149.17 19.58H147.17ZM154.26 29.31C156.323 29.31 158.048 28.1243 159.433 26.2965C160.815 24.4732 161.952 21.8994 162.869 18.8147L160.951 18.2453C160.068 21.2206 159.015 23.5368 157.839 25.0885C156.667 26.6357 155.467 27.31 154.26 27.31V29.31ZM162.866 18.8248C163.756 15.9377 164.275 13.1232 164.697 10.5625L162.723 10.2375C162.305 12.7768 161.804 15.4823 160.954 18.2352L162.866 18.8248ZM163.542 11.3858C165.342 11.6925 166.687 12.5178 167.589 13.6796C168.498 14.8496 169.01 16.4296 169.01 18.32H171.01C171.01 16.0704 170.397 14.0354 169.169 12.4529C167.933 10.8622 166.128 9.79747 163.878 9.4142L163.542 11.3858ZM169.01 18.32C169.01 22.124 166.448 24.5646 162.942 25.3864L163.398 27.3336C167.572 26.3554 171.01 23.276 171.01 18.32H169.01ZM162.953 25.3838C162.153 25.5617 161.357 25.7316 160.275 25.8455L160.485 27.8345C161.683 27.7084 162.567 27.5183 163.387 27.3362L162.953 25.3838ZM159.534 27.3732L161.784 30.9432L163.476 29.8768L161.226 26.3068L159.534 27.3732ZM162.783 31.3982C166.724 30.7882 169.809 29.3006 171.912 27.0413C174.022 24.7737 175.06 21.8175 175.06 18.44H173.06C173.06 21.3925 172.163 23.8363 170.448 25.6787C168.726 27.5294 166.096 28.8618 162.477 29.4218L162.783 31.3982ZM153.01 19.19C153.01 16.3346 155.375 12.3877 159.832 11.4694L159.428 9.51058C153.985 10.6323 151.01 15.4454 151.01 19.19H153.01ZM158.639 10.3586C158.316 12.7923 157.758 15.287 157.085 17.4532L158.995 18.0468C159.702 15.773 160.284 13.1677 160.621 10.6214L158.639 10.3586ZM157.083 17.4594C156.476 19.4599 155.905 20.8462 155.37 21.7137C154.806 22.6289 154.458 22.69 154.38 22.69V24.69C155.562 24.69 156.429 23.8061 157.072 22.7638C157.745 21.6738 158.374 20.0901 158.997 18.0406L157.083 17.4594ZM154.38 22.69C154.252 22.69 153.941 22.6098 153.615 22.063C153.288 21.5175 153.01 20.5861 153.01 19.19H151.01C151.01 20.8239 151.332 22.1425 151.898 23.0895C152.464 24.0352 153.338 24.69 154.38 24.69V22.69ZM185.64 18.98L186.011 18.0515L185.711 17.9314L185.397 18.0099L185.64 18.98ZM185.04 19.13V20.13H185.163L185.283 20.1001L185.04 19.13ZM177.42 19.13V18.13H176.42V19.13H177.42ZM177.42 22.25H176.42V23.25H177.42V22.25ZM183.21 22.25L184.057 22.7809L185.017 21.25H183.21V22.25ZM176.31 27.8L175.964 26.8617L174.498 27.402L175.603 28.5071L176.31 27.8ZM178.35 30.74L177.456 31.1872L177.88 32.036L178.75 31.6566L178.35 30.74ZM187.89 19.88L188.848 20.1669L189.11 19.2911L188.261 18.9515L187.89 19.88ZM192.21 17.54V16.54H191.21V17.54H192.21ZM199.8 17.54L200.483 18.27L202.331 16.54H199.8V17.54ZM194.58 21.62L193.824 22.2742L194.396 22.9363L195.128 22.4562L194.58 21.62ZM192.21 18.02H191.21V18.2511L191.311 18.4588L192.21 18.02ZM183.6 13.07V12.07H182.6V13.07H183.6ZM197.4 13.07H198.4V12.07H197.4V13.07ZM197.4 14.84V15.84H198.4V14.84H197.4ZM183.6 14.84H182.6V15.84H183.6V14.84ZM183.6 8.84V7.84H182.6V8.84H183.6ZM197.4 8.84H198.4V7.84H197.4V8.84ZM197.4 10.52V11.52H198.4V10.52H197.4ZM183.6 10.52H182.6V11.52H183.6V10.52ZM200.43 17.54V16.54H197.439L199.829 18.3389L200.43 17.54ZM201.12 17.54V18.54H202.12V17.54H201.12ZM201.12 6.14H202.12V5.14H201.12V6.14ZM191.37 6.14L190.544 5.57666L189.478 7.14H191.37V6.14ZM192.75 3.98L193.607 4.49449L194.384 3.20027L192.889 2.98977L192.75 3.98ZM188.49 3.38L188.629 2.38977L187.805 2.27361L187.541 3.06377L188.49 3.38ZM187.32 6.14V7.14H187.929L188.209 6.59864L187.32 6.14ZM180.06 6.14V5.14H179.06V6.14H180.06ZM180.06 17.54H179.06V18.54H180.06V17.54ZM188.64 17.54H189.64V16.54H188.64V17.54ZM187.98 28.4V27.4H187.947L187.913 27.4022L187.98 28.4ZM184.26 28.37L184.3 27.3708L182.584 27.3021L183.371 28.8286L184.26 28.37ZM185.4 31.61L184.412 31.7644L184.544 32.61H185.4V31.61ZM190.62 31.07L190.245 30.143L190.237 30.1463L190.62 31.07ZM192.21 23.69L193.005 23.0831L191.21 20.7328V23.69H192.21ZM202.47 30.68L202.186 31.6387L202.97 31.8712L203.353 31.1492L202.47 30.68ZM204.78 27.47L205.487 28.1771L206.766 26.8982L205.003 26.4951L204.78 27.47ZM196.77 23.72L196.282 22.8471L194.98 23.5749L196.148 24.503L196.77 23.72ZM203.1 19.55L203.702 20.3485L204.762 19.5494L203.701 18.7511L203.1 19.55ZM185.397 18.0099L184.797 18.1599L185.283 20.1001L185.883 19.9501L185.397 18.0099ZM185.04 18.13H177.42V20.13H185.04V18.13ZM176.42 19.13V22.25H178.42V19.13H176.42ZM177.42 23.25H183.21V21.25H177.42V23.25ZM182.363 21.7191C180.923 24.0165 178.612 25.8861 175.964 26.8617L176.656 28.7383C179.708 27.6139 182.377 25.4635 184.057 22.7809L182.363 21.7191ZM175.603 28.5071C176.223 29.1275 177.066 30.4081 177.456 31.1872L179.244 30.2928C178.794 29.3919 177.837 27.9125 177.017 27.0929L175.603 28.5071ZM178.75 31.6566C183.479 29.5936 187.17 25.7696 188.848 20.1669L186.932 19.5931C185.43 24.6104 182.161 27.9864 177.95 29.8234L178.75 31.6566ZM188.261 18.9515L186.011 18.0515L185.269 19.9085L187.519 20.8085L188.261 18.9515ZM192.21 18.54H199.8V16.54H192.21V18.54ZM199.117 16.81C197.75 18.089 195.816 19.6138 194.032 20.7838L195.128 22.4562C197.004 21.2262 199.03 19.631 200.483 18.27L199.117 16.81ZM195.336 20.9658C194.435 19.9241 193.702 18.7971 193.109 17.5812L191.311 18.4588C191.978 19.8229 192.805 21.0959 193.824 22.2742L195.336 20.9658ZM193.21 18.02V17.54H191.21V18.02H193.21ZM183.6 14.07H197.4V12.07H183.6V14.07ZM196.4 13.07V14.84H198.4V13.07H196.4ZM197.4 13.84H183.6V15.84H197.4V13.84ZM184.6 14.84V13.07H182.6V14.84H184.6ZM183.6 9.84H197.4V7.84H183.6V9.84ZM196.4 8.84V10.52H198.4V8.84H196.4ZM197.4 9.52H183.6V11.52H197.4V9.52ZM184.6 10.52V8.84H182.6V10.52H184.6ZM200.43 18.54H201.12V16.54H200.43V18.54ZM202.12 17.54V6.14H200.12V17.54H202.12ZM201.12 5.14H191.37V7.14H201.12V5.14ZM192.196 6.70334C192.658 6.02661 193.148 5.26027 193.607 4.49449L191.893 3.4655C191.452 4.19972 190.982 4.93339 190.544 5.57666L192.196 6.70334ZM192.889 2.98977L188.629 2.38977L188.351 4.37023L192.611 4.97022L192.889 2.98977ZM187.541 3.06377C187.287 3.82602 186.887 4.79832 186.431 5.68136L188.209 6.59864C188.713 5.62168 189.153 4.55398 189.439 3.69623L187.541 3.06377ZM187.32 5.14H180.06V7.14H187.32V5.14ZM179.06 6.14V17.54H181.06V6.14H179.06ZM180.06 18.54H188.64V16.54H180.06V18.54ZM187.64 17.54V27.89H189.64V17.54H187.64ZM187.64 27.89C187.64 27.9627 187.633 27.9354 187.653 27.8669C187.68 27.7722 187.752 27.6258 187.903 27.5099C187.968 27.4594 188.029 27.4303 188.072 27.4143C188.113 27.3988 188.139 27.3943 188.141 27.3939C188.144 27.3934 188.133 27.3953 188.104 27.3971C188.075 27.3988 188.035 27.4 187.98 27.4V29.4C188.133 29.4 188.309 29.3945 188.48 29.3649C188.652 29.3354 188.895 29.2699 189.122 29.0951C189.633 28.7019 189.64 28.1081 189.64 27.89H187.64ZM187.913 27.4022C187.52 27.4285 185.794 27.4306 184.3 27.3708L184.22 29.3692C185.726 29.4294 187.54 29.4315 188.047 29.3978L187.913 27.4022ZM183.371 28.8286C183.822 29.7016 184.284 30.9461 184.412 31.7644L186.388 31.4556C186.216 30.3539 185.658 28.8984 185.149 27.9114L183.371 28.8286ZM185.4 32.61C187.611 32.61 189.549 32.5964 191.003 31.9937L190.237 30.1463C189.231 30.5636 187.749 30.61 185.4 30.61V32.61ZM190.995 31.9969C191.792 31.6743 192.412 31.1912 192.786 30.4252C193.131 29.7196 193.21 28.8818 193.21 27.98H191.21C191.21 28.8182 191.124 29.2704 190.989 29.5473C190.883 29.7638 190.708 29.9557 190.245 30.1431L190.995 31.9969ZM193.21 27.98V23.69H191.21V27.98H193.21ZM191.415 24.2969C194.065 27.7663 197.634 30.2889 202.186 31.6387L202.754 29.7213C198.606 28.4911 195.395 26.2137 193.005 23.0831L191.415 24.2969ZM203.353 31.1492C203.829 30.2535 204.794 28.8705 205.487 28.1771L204.073 26.7629C203.206 27.6295 202.131 29.1865 201.587 30.2108L203.353 31.1492ZM205.003 26.4951C201.989 25.8063 199.458 24.5781 197.392 22.937L196.148 24.503C198.462 26.3419 201.271 27.6937 204.557 28.4449L205.003 26.4951ZM197.258 24.5929C199.344 23.4269 201.723 21.8407 203.702 20.3485L202.498 18.7515C200.577 20.1993 198.276 21.7331 196.282 22.8471L197.258 24.5929ZM203.701 18.7511L201.031 16.7411L199.829 18.3389L202.499 20.3489L203.701 18.7511Z" fill="#FBBF24"/>
</g>
</svg>
